<svg width="189" height="155" viewBox="0 0 189 155" fill="none" xmlns="http://www.w3.org/2000/svg">
<g clip-path="url(#clip0)">
<path d="M133.743 92.7725C133.743 92.7725 121.046 78.5823 115.252 67.6003C115.252 67.6003 98.8573 49.5849 97.8712 43.2918C97.8712 43.2918 89.2422 30.5823 88.5026 27.3741C88.5026 27.3741 85.2976 20.2172 85.5441 18.4897C85.7907 16.7622 81.5995 10.9627 84.0649 5.53344C84.0649 5.53344 82.7089 3.18897 85.1743 0.967887C85.1743 0.967887 87.6397 0.227527 89.7353 4.17611C89.7353 4.17611 93.0636 1.95503 101.323 14.5412C101.323 14.5412 107.61 20.0938 108.472 23.4255L114.883 30.5823C114.883 30.5823 121.416 32.9268 122.895 31.9396L123.758 30.4589C123.758 30.4589 119.937 15.5283 128.689 12.0733C128.689 12.0733 133.003 9.9756 133.743 14.0476C134.483 17.9962 131.771 26.5103 134.113 30.0887C134.113 30.0887 139.537 46.5 136.085 52.4229C132.264 56.7417 138.304 62.7879 137.441 62.0476L151.001 77.3484L133.743 92.7725Z" fill="#EBA968"/>
<path d="M83.2019 5.53343C83.2019 5.53343 86.9 2.572 89.8585 11.7031C89.8585 11.7031 91.5843 18.9833 93.9264 21.698C93.9264 21.698 90.4748 16.0219 87.5163 17.7494C87.5163 17.7494 85.544 19.8471 85.9138 21.4512L85.2975 17.5026C85.2975 17.626 80.6132 8.0013 83.2019 5.53343Z" fill="#E5A262"/>
<path d="M89.7354 4.29951C89.7354 4.29951 93.8033 5.78023 97.2548 12.4435C97.2548 12.4435 100.09 17.2558 101.446 18.8599C101.446 18.8599 106.377 24.536 105.761 27.0039L109.089 28.8548C109.089 28.8548 105.884 28.4846 104.158 27.991C104.158 27.991 99.9668 21.3278 98.241 19.8471C98.241 19.8471 95.6523 17.626 95.4058 17.626C95.1593 17.626 93.9265 12.5669 91.5844 10.5926C91.7077 10.4692 91.3379 7.01416 89.7354 4.29951Z" fill="#DC9B5B"/>
<path d="M127.086 12.8136C127.086 12.8136 122.895 16.2687 122.895 20.464C122.895 20.464 122.525 26.0167 123.511 30.0887C123.511 30.0887 117.594 31.9396 114.02 29.8419C114.02 29.8419 116.362 33.6671 124.004 32.063C124.004 32.063 126.1 31.9396 126.223 30.0887C126.347 30.2121 124.374 19.1067 127.086 12.8136Z" fill="#DC9B5B"/>
<path d="M130.907 63.7751C130.907 63.5283 126.84 72.536 120.799 71.7956C120.799 71.919 128.812 75.4974 130.907 63.7751Z" fill="#DC9B5B"/>
<path d="M134.853 33.5437C134.853 33.5437 139.044 44.1555 136.702 50.8188C136.702 50.8188 133.743 59.4563 137.318 62.0476C137.318 62.0476 132.264 57.482 132.88 47.7339C132.88 47.7339 133.743 29.7185 133.004 26.7571L134.853 33.5437Z" fill="#EBA968"/>
<path d="M85.6675 5.41004C85.6675 5.41004 90.9681 6.02701 91.7077 15.4049C91.7077 15.4049 94.2964 22.3149 95.2826 24.2892C95.2826 24.2892 92.0775 20.464 90.8448 15.1581C90.9681 15.1581 88.7492 8.37148 85.6675 5.41004Z" fill="#FAC17F"/>
<path d="M85.5439 0.967886C85.5439 0.967886 89.8584 -0.75962 91.7075 10.4692C91.7075 10.4692 94.9125 13.3072 95.5288 17.5026C95.5288 17.5026 101.939 21.698 104.281 27.8676L109.212 28.7314L105.021 30.3355L101.569 26.5103C101.569 26.5103 96.3917 18.9833 94.9125 18.1196C94.9125 18.1196 93.0634 12.4435 91.0911 11.3329C91.2144 11.2095 91.954 6.2738 85.5439 0.967886Z" fill="#FAC17F"/>
<path d="M97.8711 43.4152C97.8711 43.4152 96.7617 49.4615 115.252 67.7237C115.252 67.7237 122.525 80.1864 126.1 83.6414L117.101 67.7237C117.101 67.7237 100.09 50.6954 97.8711 43.4152Z" fill="#DC9B5B"/>
<path d="M89.6119 32.3098C89.6119 32.3098 87.7628 34.5309 91.954 40.3303C91.954 40.3303 99.5968 54.7674 101.323 55.2609C101.323 55.2609 92.8169 41.0707 93.1867 38.8496C93.1867 38.973 88.2559 34.4075 89.6119 32.3098Z" fill="#DC9B5B"/>
<path d="M92.9404 30.5823C92.9404 30.5823 98.8574 36.3818 99.7203 42.6748C99.7203 42.6748 101.446 45.6363 102.062 48.3509C102.062 48.3509 102.432 45.5129 100.953 43.045C100.953 43.045 100.953 38.6028 95.8989 32.5566C95.7757 32.5566 94.0499 30.7057 92.9404 30.5823Z" fill="#FAC17F"/>
<path d="M54.6032 96.8445L85.7906 76.608C85.7906 76.608 100.213 75.8676 103.788 68.5874C103.788 68.5874 107.24 65.9962 111.061 62.171C111.061 62.171 128.196 45.7597 121.169 41.6877C120.676 41.3175 115.992 40.7005 112.91 47.2404C110.321 52.7931 106.87 51.5591 104.158 54.3972C104.158 54.3972 108.596 37.9859 115.992 30.2121C115.992 30.2121 127.826 14.2944 125.36 11.2095C125.36 11.2095 124.374 7.63112 120.676 8.98845C120.676 8.98845 120.676 6.39719 117.471 6.39719C117.471 6.39719 114.513 7.75451 112.787 11.3329C112.787 11.3329 111.431 6.27379 108.226 8.12469C106.13 9.23523 105.637 10.9627 102.186 15.4049C102.186 15.4049 101.569 11.9499 97.9944 13.9242C97.9944 13.9242 84.4347 30.4589 82.4623 40.207C82.4623 40.207 76.4221 59.0861 72.724 61.4306C72.724 61.4306 55.5894 70.6851 52.8774 71.919L54.6032 96.8445Z" fill="#F0B26B"/>
<path d="M120.8 8.98845C120.8 8.98845 107.61 27.4974 104.898 27.4974C104.281 27.4974 100.337 37.6157 94.2964 41.5643C94.2964 41.5643 102.925 28.2378 103.418 26.7571C103.418 26.8805 119.567 11.7031 120.8 8.98845Z" fill="#DC9B5B"/>
<path d="M112.91 11.3329C112.91 11.3329 106.253 20.7108 100.46 24.1658C100.46 24.1658 95.7755 31.8162 91.9541 34.5309L99.5969 23.4255C99.4736 23.4255 109.952 14.9113 112.91 11.3329Z" fill="#DC9B5B"/>
<path d="M102.185 15.2815C102.185 15.2815 96.6382 21.8214 93.803 24.6594C93.803 24.6594 89.9816 31.5694 88.0093 33.4203L92.6936 24.2892L102.185 15.2815Z" fill="#DC9B5B"/>
<path d="M83.202 37.6157C83.202 37.6157 86.9001 61.0604 65.451 68.8342L53.124 75.4974L52.8774 71.7956L73.8334 60.4435C73.8334 60.4435 79.0108 52.9165 83.202 37.6157Z" fill="#FAC17F"/>
<path d="M118.334 12.5669C118.334 12.5669 105.884 26.1401 104.898 27.6208C104.898 27.6208 95.5291 41.4409 94.2964 41.6877C94.2964 41.6877 101.2 37.2455 106.254 27.6208C106.254 27.6208 117.348 15.4049 118.334 12.5669Z" fill="#FAC17F"/>
<path d="M112.91 11.3329C112.91 11.3329 107.609 22.0681 101.446 24.6594C101.446 24.6594 98.1176 31.0759 91.9541 34.5309C91.9541 34.5309 99.3503 26.7571 100.46 24.1658C100.336 24.1658 110.814 15.8985 112.91 11.3329Z" fill="#FAC17F"/>
<path d="M110.321 62.5411C110.321 62.5411 121.416 53.9036 122.895 44.1555C122.895 44.1555 125.607 50.0784 111.554 63.8985L110.321 62.5411Z" fill="#CF8A51"/>
<path d="M104.281 54.3972C104.281 54.3972 113.896 33.7905 117.964 30.9525C117.964 30.9525 117.225 31.3226 116.238 30.2121C116.115 30.2121 105.76 44.1555 104.281 54.3972Z" fill="#CF8A51"/>
</g>
<g clip-path="url(#clip1)">
<path d="M73.9218 78.0172C76.6478 81.1977 84.638 63.2851 84.638 63.2851C84.638 63.2851 89.5967 65.2476 94.4691 75.2251C93.2324 82.2043 84.4452 81.2011 85.2442 86.04C87.2467 97.6658 96.9475 83.2448 97.1136 84.9027C98.313 96.3473 93.2953 108.415 82.2911 109.309C80.1151 109.527 75.4158 109.108 72.6795 105.824C73.9333 105.803 73.9591 105.539 76.394 104.771C79.9376 103.579 80.5953 102.309 76.5337 103.554C73.8915 104.342 73.1092 104.368 71.6274 104.203C71.2542 103.612 70.9277 102.964 70.5441 102.27C72.9686 101.399 76.0977 100.248 80.0606 97.4964C85.1009 94.0084 84.3756 94.0811 79.5268 96.8696C75.6156 99.0932 71.8284 99.4204 69.3157 99.9339C68.3568 98.1985 67.4445 96.4061 66.4183 94.5204C67.3921 93.7948 68.1018 93.0434 70.6502 90.2762C74.478 86.1771 73.0999 86.0013 69.6242 89.4371C67.1482 91.8831 66.34 92.1734 65.3816 92.5311C63.5675 89.0499 61.7792 85.3044 59.9443 81.616C60.8249 81.0044 61.3843 80.3204 62.9951 78.1181C65.1187 75.2888 63.9943 75.0351 61.8758 77.393C60.3633 79.0098 60.1044 79.5591 59.0424 79.9271C56.601 74.8866 54.1181 69.4315 52.1172 65.1317C52.5471 64.7223 53.5056 64.3646 54.277 62.1418C55.2504 59.3231 54.9188 59.147 53.5568 61.743C52.5469 63.6758 52.1274 64.1888 51.7233 64.3339C48.1259 56.6358 45.5756 51.0305 45.5756 51.0305C45.5756 51.0305 49.4997 60.4228 54.4659 72.3794C53.155 72.3538 51.6215 72.7168 48.4454 71.8316C44.7304 70.7911 44.005 70.8638 47.2643 72.5779C50.0779 74.0228 53.3212 74.0117 55.2175 74.1356C56.9437 78.306 58.8047 82.7768 60.6087 87.2009C58.9612 87.4707 58.21 87.8077 53.9668 87.762C48.3091 87.7011 48.5165 88.7269 55.0085 89.2798C59.8684 89.7346 59.2517 89.3255 61.4381 89.211C62.7392 92.2727 63.9367 95.3447 65.1705 98.2562C62.3989 99.3189 60.2178 100.008 56.8554 100.398C52.5035 100.834 49.872 102.772 57.2651 101.874C63.0003 101.143 63.8396 101.163 66.1451 100.67C66.5598 101.675 66.9745 102.68 67.3322 103.639C67.41 103.893 67.5343 104.089 67.6121 104.343C65.8716 105.774 64.7579 106.67 60.4943 108.51C54.6248 111.035 55.7856 112.175 61.2614 109.899C65.1779 108.25 66.3486 107.4 68.2031 106.063C68.3587 106.571 68.5142 107.079 68.6698 107.586C68.0278 109.535 67.5411 110.944 66.2047 112.229C64.6248 113.696 64.1226 115.473 67.0959 112.768C68.3391 111.597 68.8727 111.177 69.2456 110.721C70.6273 126.595 49.4636 130.025 36.6953 119.583C36.2962 119.256 57.7966 115.531 49.9874 109.145C46.8523 106.581 40.2538 115.929 35.1294 114.402C24.2382 111.202 21.6075 93.8311 21.6075 93.8311C21.6075 93.8311 35.7896 101.149 37.234 96.2419C38.6784 91.3352 31.5659 96.0774 22.9123 90.1419C15.6059 85.118 21.6535 68.185 21.6535 68.185C21.6535 68.185 21.1985 71.9984 25.3079 75.9298C29.0183 79.535 37.7229 81.8023 39.9552 78.4911C42.8193 74.1747 29.3079 77.2035 26.2434 65.9458C24.4959 59.4751 32.1422 55.3597 36.0063 51.1C39.9274 46.8869 41.0348 41.229 41.0348 41.229C41.0348 41.229 43.7965 42.1558 49.7293 44.4393C55.6621 46.7228 61.5007 44.934 63.8901 49.4565C66.2796 53.979 59.3859 64.0369 62.9816 64.4091C66.5773 64.7813 67.3513 50.5748 67.3513 50.5748C67.3513 50.5748 70.284 51.6414 76.6522 55.1372C85.4351 59.7515 70.3097 73.8265 73.9218 78.0172Z" fill="#375323"/>
</g>
<g clip-path="url(#clip2)">
<path d="M118.408 98.3566C119.172 98.8258 120.082 99.4907 121.026 100.489C123.207 102.876 122.411 102.916 120.594 101.207C119.567 100.217 117.493 99.2923 115.925 98.7791C115.517 98.9051 115.108 99.031 114.7 99.157C115.816 100.601 117.936 103.626 119.269 106.774C121.109 111.175 120.194 112.111 118.153 107.393C116.666 103.967 114.471 101.033 113.317 99.6353C113.113 99.6983 112.955 99.7987 112.751 99.8617C111.981 100.151 111.173 100.486 110.365 100.822C110.765 102.675 111.714 107.421 112.358 112.071C113.13 117.971 111.849 115.323 111.491 111.823C111.218 109.156 109.33 103.875 108.508 101.601C106.168 102.598 103.744 103.604 101.237 104.619C101.333 106.377 101.567 110.312 101.247 114.176C100.813 119.4 100.162 117.571 100.202 113.02C100.24 109.689 99.8415 106.614 99.6217 105.289C96.0656 106.748 92.472 108.252 89.1199 109.648C89.0234 111.174 88.6386 116.055 87.3739 118.922C86.2214 121.65 85.9406 120.963 86.7715 117.973C87.5158 115.37 87.644 111.273 87.6624 110.218C78.0518 114.233 77.2269 114.402 77.2269 114.402C77.2269 114.402 89.834 108.396 93.885 106.424C93.5871 105.57 92.8673 104.296 91.61 103.119C89.6637 101.382 89.5036 100.64 91.7833 102.344C93.5117 103.599 94.7283 105.2 95.2591 105.862C98.2234 104.38 101.234 102.935 104.031 101.47C103.704 100.745 102.913 99.184 100.941 97.1962C98.1714 94.4057 98.3106 93.2967 101.615 96.3694C103.845 98.4149 105.09 99.8876 105.676 100.67C107.191 99.8411 108.631 99.1042 110.026 98.3299C109.609 96.3094 108.313 91.0523 106.564 87.9469C104.312 84.0508 104.253 83.4674 107.067 87.5165C109.241 90.6625 111.153 95.3514 111.857 97.3004C112.415 96.9907 112.89 96.6895 113.41 96.4257C113.541 95.2334 113.54 93.1702 112.902 91.046C111.894 87.7805 112.602 87.2871 113.882 91.1563C114.503 93.1138 114.694 94.568 114.667 95.5392C117.304 93.3325 117.633 89.5513 117.454 87.8012C116.536 76.3579 100.44 72.9519 90.0521 78.0148C82.0335 81.9511 95.9121 92.4894 91.81 93.9618C87.6245 95.4427 83.9525 77.2493 75.0166 91.9745C70.943 98.6652 81.8035 99.8699 80.84 103.211C79.3888 108.37 73.1875 95.9092 69.2058 102.675C67.3833 105.851 66.2223 108.496 64.3951 113.272C62.568 118.049 61.8597 121.827 61.8597 121.827C61.8597 121.827 67.1784 121.956 70.5283 125.066C73.9241 128.214 77.2849 134.312 82.4876 132.896C91.539 130.412 89.966 118.741 93.3973 121C96.1022 122.745 93.3318 130.65 90.4377 133.64C87.1984 136.961 97.3487 141.102 101.792 135.553C107.943 128.186 102.996 117.281 105.309 115.192C108.395 112.434 109.056 122.598 108.358 127.302C107.66 132.005 118.895 132.75 125.553 124.574C133.97 114.239 131.214 97.1728 118.408 98.3566Z" fill="#ADB77C"/>
</g>
<path d="M133.253 92.8209C129.849 93.8676 126.045 79.1001 126.045 79.1001C126.045 79.1001 121.671 80.1664 116.31 87.9542C109.393 98.0112 110.56 115.36 122.314 118.017C124.117 118.407 128.099 118.689 130.848 116.271C129.826 116.11 128.341 115.693 126.382 114.763C122.584 112.867 120.165 109.664 120.165 109.664C120.165 109.664 123.166 112.179 126.482 113.759C128.596 114.775 130.742 115.001 132.003 115.092C132.38 114.594 132.756 114.095 133.132 113.596C131.199 112.528 126.602 109.888 123.651 107.098C119.824 103.52 119.373 101.505 119.373 101.505C119.373 101.505 120.451 103.665 124.225 106.607C127.234 108.926 132.526 111.041 134.57 111.817C135.553 110.493 136.58 109.091 137.649 107.613C136.926 106.911 134.966 105.525 133.175 102.921C130.488 99.0148 129.776 95.6441 129.776 95.6441C129.776 95.6441 131.655 99.0033 134.126 102.387C135.908 104.734 138.004 105.69 138.718 106.134C140.668 103.426 142.685 100.504 144.643 97.5984C144.016 96.9992 142.536 95.4754 141.51 93.4957C140.096 90.8475 140.357 88.8217 140.357 88.8217C140.357 88.8217 141.048 90.768 142.538 93.004C143.563 94.5289 144.99 95.4179 145.841 95.8878C148.491 92.0025 160.477 73.592 160.477 73.592C160.477 73.592 156.059 81.0428 150.435 90.4016C151.577 90.5275 155.869 90.9804 158.691 90.6216C161.951 90.2017 164.341 88.797 164.341 88.797C164.341 88.797 162.344 89.763 159.378 90.7486C156.831 91.613 151.185 91.8757 149.589 91.751C147.615 95.051 145.513 98.5831 143.453 102.038C144.801 102.429 147.927 103.348 151.447 103.829C156.185 104.478 163.753 104.116 163.753 104.116C163.753 104.116 158.006 105.383 152.462 105.096C148.36 104.849 144.299 104.069 142.496 103.679C141.052 106.111 139.59 108.483 138.249 110.821C140.491 112.059 145.896 114.792 148.437 115.489C151.975 116.485 160.447 117.228 160.447 117.228C160.447 117.228 154.237 118.238 148.157 116.546C143.425 115.244 138.993 113.402 137.103 112.711C136.616 113.502 136.189 114.275 135.702 115.066C135.616 115.221 139.463 119.768 142.781 121.802C147.388 124.7 154.327 127.12 154.327 127.12C154.327 127.12 146.248 125.483 141.908 122.834C138.84 120.988 135.984 118.3 134.599 116.879C134.403 117.326 134.19 117.713 134.053 118.142C134.358 119.875 134.697 121.728 135.894 123.398C137.427 125.557 140.134 127.052 140.134 127.052C140.134 127.052 137.257 126.321 135.071 123.7C134.167 122.596 133.598 121.524 133.219 120.659C130.067 133.856 147.441 139.313 159.462 132.076C169.051 126.32 175.28 112.3 175.28 112.3C175.28 112.3 169.931 114.493 164.928 114.505C159.925 114.517 150.578 113.442 150.044 109.11C149.449 104.795 166.692 112.956 174.663 109.032C181.443 105.711 178.377 90.7962 178.377 90.7962C178.377 90.7962 178.325 93.9971 174.35 96.8988C170.804 99.4819 156.56 100.143 155.103 97.1178C153.248 93.1664 170.885 97.508 174.775 88.4538C177.045 83.248 171.156 78.8346 168.375 74.8254C165.653 70.799 165.358 65.9427 165.358 65.9427C165.358 65.9427 162.948 66.3777 157.639 67.5836C152.33 68.7894 147.656 66.5612 145.099 70.0944C142.542 73.6276 147.104 82.9098 144.006 82.763C140.908 82.6161 142.054 70.5824 142.054 70.5824C142.054 70.5824 139.568 71.4295 133.66 73.2633C127.854 75.0024 136.597 91.7915 133.253 92.8209Z" fill="#6A8A50"/>
<defs>
<clipPath id="clip0">
<rect width="98" height="96" fill="white" transform="translate(52.8774 0.84449)"/>
</clipPath>
<clipPath id="clip1">
<rect width="75.2561" height="79.6006" fill="white" transform="translate(110.138 82.2367) rotate(129.276)"/>
</clipPath>
<clipPath id="clip2">
<rect width="60.0088" height="65.1033" fill="white" transform="translate(96.0439 65.7806) rotate(39.1584)"/>
</clipPath>
</defs>
</svg>
