<svg width="133" height="184" viewBox="0 0 133 184" fill="none" xmlns="http://www.w3.org/2000/svg">
  <g clip-path="url(#clip0)">
  <path d="M83.534 166.691C77.6075 168.402 81.1259 180.456 75.4039 181.87C69.5819 183.282 65.802 181.925 65.802 181.925C65.802 181.925 74.767 171.059 69.2586 171.576C63.6517 171.991 68.0334 179.858 62.2265 180.271C56.4181 180.783 52.6669 177.526 52.6669 177.526C52.6669 177.526 63.7151 167.792 58.6474 165.615C53.5797 163.438 54.4788 176.753 48.3387 179.361C45.0179 180.711 41.0637 177.651 41.0637 177.651C41.0637 177.651 57.1729 157.292 49.7964 155.68C45.4105 154.714 47.7819 163.251 43.9947 168.994C39.0805 176.521 36.5793 176.583 31.6523 171.708C28.9919 169.068 26.8785 169.936 26.8785 169.936C26.8785 169.936 28.7055 168.163 26.7571 164.734C24.8086 161.304 20.1801 156.533 28.4079 154.757C36.6356 152.981 47.0435 152.538 44.2846 149.796C41.5257 147.055 39.1199 147.418 31.5921 149.205C24.0642 150.991 21.1178 154.047 21.1178 154.047C21.1178 154.047 17.0907 149.186 20.931 146.544C28.1042 141.751 39.5501 145.425 38.8121 141.313C38.074 137.201 17.7843 142.996 17.7843 142.996C17.7843 142.996 16.2264 133.571 19.9335 133.127C23.7406 132.684 37.8692 130.897 34.2391 126.242C30.8089 121.59 19.8543 125.125 19.8543 125.125C19.8543 125.125 19.9143 114.525 26.5226 114.024C37.738 113.093 45.948 119.118 44.4146 114.694C42.8812 110.271 26.6679 111.026 26.6679 111.026C26.6679 111.026 28.5232 100.753 35.7285 100.462C42.9352 100.07 55.2371 106.657 56.2959 102.772C57.3547 98.888 40.0306 93.7259 40.0306 93.7259C40.0306 93.7259 47.4898 83.2373 51.6441 86.3004C55.7983 89.3634 62.3523 92.4627 67.5913 96.5423C72.4333 100.416 75.8408 106.568 77.0754 104.286C78.3115 101.905 72.6058 95.6179 67.7637 91.7443C62.9217 87.8708 56.5797 83.9746 56.5797 83.9746C56.5797 83.9746 65.0875 76.9022 69.5251 81.0697C73.9627 85.2372 84.5033 102.498 86.7604 98.7319C89.116 95.0671 75.8304 80.7649 75.8304 80.7649C75.8304 80.7649 91.3162 75.198 92.9816 84.1242C94.6471 93.0504 92.4431 99.9179 97.2471 99.6904C101.951 99.4614 97.866 85.1981 97.866 85.1981C97.866 85.1981 106.248 86.4248 106.458 92.4286C106.971 104.838 97.5085 115.496 97.5085 115.496C97.5085 115.496 102.471 111.371 109.311 108.774C116.251 106.178 121.454 106.057 121.454 106.057L121.413 108.756C121.413 108.756 112.906 109.128 108.572 111.363C100.708 115.544 98.8631 118.517 98.8631 118.517C98.8631 118.517 114.39 116.851 117.728 121.002C121.064 125.253 119.881 130.736 119.881 130.736C119.881 130.736 112.833 120.628 110.456 125.693C108.078 130.857 117.407 128.998 118.898 136.221C120.391 143.345 111.277 150.808 111.277 150.808C111.277 150.808 106.399 129.432 103.921 134.595C101.543 139.76 111.654 152.314 111.368 158.01C111.182 163.708 101.49 169.762 101.49 169.762C101.49 169.762 102.284 150.272 97.8573 152.006C93.5307 153.74 100.278 170.544 95.8163 174.577C91.3549 178.61 82.7635 177.981 82.7635 177.981C82.7635 177.981 89.559 165.082 83.534 166.691ZM58.9685 164.22C63.0348 166.481 66.2032 148.727 63.1323 146.781C59.2674 144.422 54.9022 161.958 58.9685 164.22ZM75.043 146.16C72.2539 145.418 68.7489 158.967 73.0409 159.532C76.436 159.883 77.8321 146.903 75.043 146.16ZM41.4299 140.152C40.6741 143.841 51.7366 146.409 51.6879 143.007C51.6408 139.506 42.1887 136.263 41.4299 140.152ZM46.3204 114.323C44.1799 116.991 60.9692 124.445 62.2295 120.464C63.4897 116.483 48.2564 111.952 46.3204 114.323ZM59.4895 103.221C57.0671 104.684 67.6678 111.345 69.5872 110.074C71.5066 108.803 63.0208 101.174 59.4895 103.221ZM91.5847 110.406C93.7071 108.938 89.2876 103.571 87.7727 104.548C86.1563 105.624 89.2593 112.071 91.5847 110.406ZM82.0423 119.763C82.7011 115.873 75.376 110.861 73.849 112.639C72.2189 114.614 81.385 123.554 82.0423 119.763ZM37.6251 127.193C37.0693 130.885 47.3364 133.141 50.304 128.685C53.3701 124.331 38.1884 123.001 37.6251 127.193ZM53.2007 128.929C49.9406 132.88 60.7579 138.444 61.7136 134.758C62.6694 131.072 56.6622 124.881 53.2007 128.929ZM98.4046 129.011C100.421 127.942 96.3833 123.78 95.1714 124.562C93.8594 125.342 96.0852 130.276 98.4046 129.011ZM83.4262 134.086C81.122 134.351 81.6102 141.759 84.9083 141.909C87.9065 142.054 85.7305 133.82 83.4262 134.086ZM94.548 139.354C92.9391 139.93 95.1743 150.865 97.886 150.106C100.398 149.344 96.1584 138.678 94.548 139.354ZM86.3583 145.231C82.9647 144.78 81.6931 162.763 85.1716 164.215C88.0546 165.359 89.7519 145.682 86.3583 145.231ZM72.9122 161.43C69.2519 158.774 67.4117 168.048 69.1934 169.275C72.1628 171.32 76.571 164.186 72.9122 161.43Z" fill="#375323"/>
  </g>
  <g clip-path="url(#clip1)">
  <path d="M97.5897 116.522C94.6233 117.787 92.22 119.202 90.8879 120C90.1457 118.86 89.376 117.624 88.5788 116.292C91.3663 114.038 100.388 106.672 103.298 102.303C106.909 97.1089 117.327 80.0857 117.327 80.0857C117.327 80.0857 107.523 88.7159 102.553 93.8827C98.4476 98.0738 89.9635 109.863 86.9707 113.944C86.1735 112.612 85.2526 111.211 84.3317 109.81C87.5171 106.402 95.961 97.0171 99.0907 91.961C102.907 85.6683 106.432 73.6341 106.432 73.6341C106.432 73.6341 101.698 85.8062 97.304 89.3519C92.8138 92.9251 89.2707 95.0831 86.3608 100.18C84.5489 103.299 83.3685 105.717 82.7097 107.05C81.5827 105.292 80.4556 103.534 79.301 101.68C82.1847 99.3991 90.5747 92.7337 93.485 88.3644C96.9443 83.006 108.27 66.9714 108.27 66.9714C108.27 66.9714 100.911 74.6941 94.7313 79.2707C89.4994 83.1601 80.4524 95.5262 77.7616 99.2086C77.1981 98.3297 76.6345 97.4508 76.0435 96.4758C78.5837 94.0847 86.7808 86.0183 89.6772 81.237C93.0265 75.4939 103.362 55.2703 103.362 55.2703C103.362 55.2703 96.2636 64.2703 90.3594 69.8083C85.3476 74.4668 76.8099 89.7036 74.4354 94.1276C73.487 92.6307 72.5386 91.1339 71.5902 89.637C73.1554 87.837 78.0018 81.8736 80.4178 77.9578C83.3417 73.2726 87.2264 66.8563 91.0158 62.6515C94.9014 58.4193 101.739 51.782 101.739 51.782C101.739 51.782 83.105 65.5393 78.5062 72.368C74.8546 77.7815 71.8082 85.3101 70.5732 88.2638C69.295 86.3413 68.0167 84.4188 66.711 82.4001C69.0314 79.9679 76.171 72.2041 79.1901 65.3074C82.8406 56.9819 88.0242 35.84 88.0242 35.84C88.0242 35.84 83.8117 46.9267 79.7626 54.2222C76.1938 60.6521 67.739 76.9053 65.7351 80.8071C64.7867 79.3103 63.7421 77.8409 62.7938 76.3441C65.2786 73.0327 73.7494 62.2877 76.3154 55.6246C79.3478 47.684 85.0279 31.1847 85.0279 31.1847C85.0279 31.1847 76.1465 45.5836 71.1637 53.9784C67.1006 60.8618 62.8053 70.9321 61.3919 74.3529C60.4435 72.8561 59.4265 71.4829 58.5056 70.0822C59.5898 67.6917 64.8323 56.2062 66.7524 49.1039C68.9332 41.0949 71.4125 23.9513 71.4125 23.9513C71.4125 23.9513 65.5393 38.3216 62.5349 47.8144C60.0382 55.8098 57.8169 65.4946 57.1862 68.3794C55.7568 66.2921 54.2863 64.4246 52.9394 62.6258C54.2434 60.2764 57.6335 53.5855 59.3475 46.1262C61.4591 36.7848 62.8693 25.3558 62.8693 25.3558C62.8693 25.3558 57.9835 35.9071 55.7205 44.3557C54.0609 50.5513 52.4567 57.6672 51.7437 60.9916C50.6031 59.5498 49.5174 58.3003 48.5279 57.0232C49.4334 54.3718 52.0952 46.9533 52.9581 40.8816C54.1639 33.4636 54.6402 22.4059 54.6402 22.4059C54.6402 22.4059 53.2146 29.7827 50.4292 37.1326C48.1789 43.0813 47.4408 52.1336 47.2636 55.5128C46.0268 54.0985 44.7899 52.6841 43.6081 51.4621C44.4039 49.1541 46.8184 41.5983 46.7483 38.0819C46.5817 33.865 46.5353 20.9806 46.5353 20.9806C46.5353 20.9806 44.4794 31.9703 43.4514 37.4651C42.7112 41.4214 42.645 47.3692 42.5775 50.4049C41.5469 49.3476 40.5162 48.2903 39.6368 47.3979C40.6795 44.4991 43.5741 35.3497 43.0786 32.8912C42.5417 29.9244 42.6193 17.8366 42.6193 17.8366C42.6193 17.8366 41.7028 27.3561 40.579 33.6065C39.7841 38.0985 38.8523 43.5658 38.3863 46.2995C37.5344 45.5031 36.7099 44.8029 35.8855 44.1027C36.0908 42.2757 36.7747 35.2151 37.2679 31.8496C37.7882 27.8522 37.5513 19.3909 37.5513 19.3909C37.5513 19.3909 36.5647 25.3939 36.0308 29.7073C35.5651 33.1689 35.0324 40.3943 34.8549 43.0455C34.1816 42.51 33.6319 42.0432 32.9862 41.6039C33.2465 39.9692 34.4937 33.0595 34.3549 29.6667C34.1473 25.6696 32.688 17.6621 32.688 17.6621C32.688 17.6621 32.1138 24.3793 32.1848 30.0797C32.2141 34.5439 32.1472 39.0356 32.1342 40.8076C31.5846 40.3408 31.09 40.0663 30.5679 39.6956C30.6909 38.3082 30.8406 34.8329 29.9463 31.3443C28.777 26.8943 27.2361 20.7824 27.2361 20.7824C27.2361 20.7824 25.9744 25.824 27.1304 31.318C27.8874 35.0539 29.221 37.8967 29.9221 39.2563C28.1359 38.1032 27.0506 37.5817 26.556 37.3072C26.5557 36.5791 26.3486 34.0381 24.8639 31.0305C23.0218 27.501 20.5204 23.8483 20.5204 23.8483C20.5204 23.8483 19.5468 28.0794 21.3197 30.2764C22.9964 32.501 23.7936 33.833 23.7936 33.833C23.7936 33.833 21.6773 31.5262 18.4487 30.0578C15.2888 28.4657 10.5912 28.7698 10.5912 28.7698C10.5912 28.7698 17.1179 33.7671 19.6456 34.6039C21.7338 35.3586 24.1243 36.4428 25.5256 36.9779C24.6464 36.8134 23.1354 36.6217 21.2398 36.5401C18.108 36.5001 14.9628 37.5041 14.9628 37.5041C14.9628 37.5041 18.0677 38.904 21.0895 38.5593C24.1113 38.2147 24.1524 37.9949 26.4737 37.7467C27.3257 38.5431 29.689 40.2591 31.1456 41.7146C29.5245 41.1383 26.1451 40.2331 22.8209 40.2482C18.0408 40.2639 10.2664 40.7203 10.2664 40.7203C10.2664 40.7203 19.6764 42.7082 23.6871 42.1846C26.7089 41.84 30.0605 41.921 31.5441 42.0166C32.2724 42.7443 33.1243 43.5407 33.9076 44.4607C31.902 43.9944 28.3853 43.3365 25.7892 43.3513C21.8607 43.4353 21.6548 43.8063 16.8336 44.0418C11.9848 44.1811 5.69331 43.2771 5.69331 43.2771C5.69331 43.2771 12.1371 47.2579 15.4198 46.7346C18.7025 46.2113 22.2606 47.3774 26.7246 46.6201C29.815 46.1519 33.4 45.9581 35.3643 45.9161C36.1201 46.7399 36.9995 47.6324 37.9065 48.6211C35.379 48.5122 30.2004 48.2258 25.9699 48.7083C20.3384 49.3837 8.10067 52.0534 8.10067 52.0534C8.10067 52.0534 20.4908 52.4605 24.7213 51.978C28.2513 51.592 36.8084 50.5995 39.4457 50.3649C40.5038 51.5183 41.617 52.864 42.7988 54.086C39.653 53.634 32.7297 52.7028 28.0732 52.7871C21.9607 52.872 9.02185 54.1821 9.02185 54.1821C9.02185 54.1821 22.6079 56.9513 29.1186 56.4404C34.2008 56.0263 41.3984 55.7349 44.1868 55.6651C45.4236 57.0794 46.6879 58.5899 47.9522 60.1003C44.8476 59.4285 34.7782 57.3173 30.3826 57.2229C25.1904 57.2525 11.139 58.673 11.139 58.673C11.139 58.673 26.2222 61.2218 31.1947 61.1511C35.5352 61.0532 46.4007 61.5845 49.2716 61.8031C50.4123 63.2449 51.5529 64.6867 52.7211 66.2247C49.0536 66.13 38.7239 65.6534 34.5203 64.776C29.41 63.638 29.3831 64.9979 23.9847 64.6704C18.5863 64.3429 10.5089 63.0138 10.5089 63.0138C10.5089 63.0138 18.5463 67.4748 22.5709 67.3633C26.6231 67.3479 30.6214 70.0523 35.5252 70.1052C43.2449 70.1845 50.8953 68.9314 53.9307 68.2709C55.0714 69.7127 56.1435 71.2782 57.2155 72.8436C53.8775 72.4467 41.5557 71.1879 37.119 71.3133C31.9543 71.4391 15.4168 73.2589 15.4168 73.2589C15.4168 73.2589 24.7712 73.5985 29.1807 74.105C33.5902 74.6114 36.6957 77.4673 42.7393 76.778C47.478 76.2541 55.156 75.0972 58.3426 74.6014C58.9061 75.4803 59.4421 76.263 60.0057 77.1419C60.5692 78.0208 61.1327 78.8997 61.6963 79.7785C59.0451 79.601 53.5506 79.3011 48.1525 79.7016C40.8452 80.3364 37.7556 82.9887 31.5606 82.7852C25.393 82.6778 16.7386 80.7857 16.7386 80.7857C16.7386 80.7857 25.6004 85.9469 30.9846 85.1343C36.3963 84.4178 41.6566 82.8086 45.2419 83.3428C48.8548 83.9732 51.2314 84.6453 54.9809 83.5724C57.5767 82.8296 60.763 81.6058 62.466 81.0145C63.7992 83.1293 65.2837 85.4089 66.7956 87.7846C63.746 87.3051 52.5504 85.6201 46.4929 85.8972C39.4876 86.1336 22.7588 90.1925 22.7588 90.1925C22.7588 90.1925 35.2172 89.7479 41.1788 90.2263C47.1405 90.7046 52.1821 91.9663 57.0031 91.0028C60.5467 90.3008 65.299 89.461 67.6614 88.993C68.6098 90.4899 69.5857 92.0829 70.5616 93.6758C66.7429 93.4164 56.1384 92.7064 50.6989 92.5987C43.9956 92.4366 25.0404 93.8042 25.0404 93.8042C25.0404 93.8042 38.6942 94.2657 42.4446 95.3768C46.195 96.4879 53.0912 98.051 59.0661 97.4854C63.6676 97.2088 69.4088 96.19 71.8949 95.7907C73.0495 97.6446 74.2041 99.4985 75.3862 101.448C72.3366 100.969 63.5176 99.9561 56.8833 100.398C48.7243 100.965 30.4027 106.728 30.4027 106.728C30.4027 106.728 39.4814 104.65 46.0338 105.375C52.49 106.128 62.3529 107.154 67.5035 105.888C70.9234 105.118 74.6729 104.045 76.7194 103.563C77.4616 104.703 78.1352 105.967 78.8774 107.106C76.089 107.176 69.5919 107.371 63.4797 108.184C55.4583 109.231 31.0786 113.815 31.0786 113.815C31.0786 113.815 49.0594 114.495 56.5318 114.437C64.0317 114.475 67.6576 113.333 80.1145 109.249C81.0354 110.649 81.8877 112.174 82.8085 113.574C81.1463 113.218 77.6986 113.164 70.5291 115.008C57.2477 118.392 42.4981 125.733 42.4981 125.733C42.4981 125.733 52.2909 123.243 57.634 122.65C62.2766 122.154 80.0627 117.064 84.293 115.854C85.0627 117.09 85.8324 118.326 86.4785 119.493C84.4042 119.151 80.0497 118.836 74.3088 120.583C66.3154 123.183 57.9964 135.548 57.9964 135.548C57.9964 135.548 67.2091 125.215 72.0301 124.252C76.851 123.288 77.511 124.868 80.9446 123.781C83.2245 123.025 85.9986 121.815 87.5505 121.059C88.3753 122.487 88.7326 123.009 89.5298 124.341C86.9337 124.356 81.028 126.254 77.0596 129.469C71.9789 133.524 70.7169 137.837 70.7169 137.837C70.7169 137.837 74.6442 134.841 79.4374 133.054C83.2966 131.637 88.5421 127.432 90.4782 125.838C96.21 135.327 100.347 142.152 100.347 142.152L102.076 138.017C102.076 138.017 98.4751 131.974 92.3173 122.087C94.8034 121.688 101.259 120.256 106.313 117.562C112.698 114.071 122.131 105.234 122.131 105.234C122.131 105.234 113.769 111.268 109.923 113.096C105.776 114.595 102.039 114.624 97.5897 116.522Z" fill="#ADB77C"/>
  </g>
  <defs>
  <clipPath id="clip0">
  <rect width="103.7" height="103.2" fill="white" transform="matrix(-0.0150977 0.999886 0.999886 0.0150977 18.5656 78)"/>
  </clipPath>
  <clipPath id="clip1">
  <rect width="98.2" height="138" fill="white" transform="matrix(-0.961413 0.275111 0.275111 0.961413 94.4107 0)"/>
  </clipPath>
  </defs>
</svg>