<svg width="157" height="201" viewBox="0 0 157 201" fill="none" xmlns="http://www.w3.org/2000/svg">
<path d="M40.4701 96.9897C38.9622 96.8625 37.0852 96.5516 34.9035 95.764C29.8018 93.8215 30.972 93.1576 35.0092 94.3537C37.3101 95.0652 41.1385 94.8842 43.8927 94.4667C44.4124 93.9668 44.9321 93.4668 45.4517 92.9669C42.6725 91.6381 37.1784 88.6877 32.7783 84.9541C26.6616 79.7162 27.33 77.6107 33.9897 83.1729C38.8351 87.2093 44.3721 89.9645 47.1729 91.1955C47.4328 90.9456 47.5949 90.6741 47.8548 90.4241C48.7964 89.4027 49.7596 88.2837 50.7228 87.1646C48.7113 84.6738 43.6769 78.2407 39.1738 71.7198C33.5284 63.4114 37.4715 66.43 40.6701 71.4349C43.1071 75.2481 49.9639 81.7753 52.9305 84.5788C55.7008 81.2978 58.5903 77.9406 61.599 74.5073C60.1189 71.9287 56.7779 66.1757 54.3257 60.1063C51.0124 51.9019 53.3813 54.1643 56.7788 61.0561C59.2508 66.1058 62.1877 70.4387 63.5254 72.2692C67.7786 67.3692 72.0533 62.3715 76.0467 57.7214C75.0333 55.348 71.9056 47.6964 71.635 42.4146C71.3 37.4259 72.2452 38.2484 73.2639 43.3877C74.1186 47.8765 77.0376 54.151 77.8108 55.7548C89.2498 42.4022 90.3653 41.5215 90.3653 41.5215C90.3653 41.5215 75.9212 60.1513 71.3123 66.2017C72.4099 67.2626 74.4625 68.6361 77.2517 69.455C81.5057 70.5965 82.3103 71.5929 77.5796 70.756C74.0208 70.1772 70.97 68.6863 69.6673 68.0922C66.3244 72.5783 62.8838 77.0429 59.7793 81.3767C60.8222 82.2207 63.201 83.9732 67.6835 85.4722C73.9786 87.5751 74.6111 89.3527 67.2964 87.2301C62.3802 85.8404 59.3841 84.5663 57.9076 83.8316C56.2527 86.2319 54.6408 88.4369 53.1266 90.6634C55.2904 93.3925 61.2369 100.334 66.2328 103.686C72.5861 107.85 73.1192 108.684 65.8009 104.718C60.133 101.627 53.6902 96.0096 51.1474 93.6066C50.5417 94.4972 50.0552 95.3116 49.471 96.1046C50.1797 98.0013 51.7477 101.111 54.3236 103.829C58.3231 107.986 57.6314 109.267 52.7628 104.407C50.3392 101.927 48.9469 99.8802 48.2498 98.3956C45.9498 103.726 48.3259 109.676 49.9252 112.178C60.0012 128.732 86.8543 121.641 98.6687 106.118C107.767 94.0935 78.8401 88.748 83.9059 83.4125C89.0909 78.0009 108.446 102.639 110.732 73.6529C111.791 60.4723 94.5036 66.9052 93.4186 61.137C91.6876 52.257 110.501 66.3319 111.365 53.1083C111.7 46.936 111.441 42.0664 110.568 33.4776C109.694 24.8888 107.892 18.6556 107.892 18.6556C107.892 18.6556 99.7758 22.5001 92.3634 20.356C84.8534 18.1904 75.1546 11.5494 68.3873 17.6366C56.6285 28.2564 67.8648 44.6563 60.9756 43.8562C55.573 43.2809 53.7453 29.2599 55.8365 22.5527C58.1974 15.0857 39.7503 16.5532 37.2675 28.2939C33.5885 44.0719 49.3298 56.7536 47.4303 61.6599C44.8722 68.1619 36.1554 53.3407 33.6351 45.7205C31.1148 38.1003 13.612 45.5098 9.7843 62.8934C4.94591 84.867 22.0642 108.501 40.4701 96.9897Z" fill="#375323"/>
<path d="M61.521 186.212C54.3682 178.696 52.589 168.253 52.8125 158.864C51.6742 161.941 49.5771 163.954 48.4686 167.125C46.2669 171.161 47.1714 176.43 44.9994 180.56C36.8027 173.055 35.0777 158.407 39.5262 148.123C41.6982 143.993 43.8701 139.862 48.17 136.85C51.311 134.827 55.4611 136.05 58.6976 133.997C45.8935 143.003 37.8406 157.862 42.7272 172.575C38.8949 158.896 51.5456 145.016 58.5182 138.137C52.8565 153.615 58.7224 171.478 69.931 183.284C57.7636 170.415 55.1433 148.506 64.9151 133.112C64.9048 132.068 69.0252 133.196 69.0252 133.196C70.825 145.726 73.603 158.372 82.7586 166.941C81.7043 165.907 71.7295 150.995 74.4954 133.276C74.4954 133.276 75.5394 133.266 76.6131 133.351C76.8553 146.261 97.5449 156.9 108.008 157.209C95.6171 153.729 79.595 145.305 80.7529 133.531C86.5031 133.838 90.4055 133.253 95.0292 132.968C100.131 143.321 112.617 143.734 123.05 143.947C113.65 142.68 102.973 142.019 97.9469 132.585C98.9909 132.575 101.174 132.525 102.844 132.843C104.544 133.258 120.303 134.434 129.701 132.665C122.429 132.516 115.033 132.302 107.751 131.109C117.215 129.215 125.634 124.295 132.106 117.152C123.537 126.308 110.902 130.13 98.4464 129.812C106.121 116.431 117.841 106.297 130.531 98.269C116.872 104.189 106.121 116.431 96.414 128.663C94.3169 130.677 89.0377 130.537 85.9715 130.443C87.3333 117.977 95.8919 107.777 101.47 96.4099C93.764 106.659 88.1966 119.07 81.6705 130.418C80.6265 130.428 77.5604 130.334 76.4867 130.249C70.6414 114.473 79.3692 99.0896 84.9159 84.5902C76.2927 97.9513 70.6311 113.429 71.2074 130.109C66.0328 127.948 64.0649 123.638 62.1268 119.423C56.1872 106.713 59.6666 94.3221 61.0284 81.8563C56.4404 97.4191 53.8757 116.123 64.0015 129.836C57.8281 125.471 52.6922 121.412 49.8108 113.826C47.5888 108.024 47.0522 100.232 44.0198 93.8442C45.7345 107.448 48.4931 121.042 58.7223 129.696C48.3741 128.409 39.1037 120.818 31.9806 113.398C37.9848 122.946 47.2153 129.398 58.6474 131.814C46.0524 136.775 34.143 126.758 25.7282 117.54C20.1601 111.417 27.09 105.075 28.134 105.064C34.2971 108.385 36.2365 115.636 43.5379 115.88C38.4924 107.395 40.816 78.818 45.6305 86.2228C50.6889 94.0754 47.9864 105.596 55.1095 113.017C53.2359 105.641 50.9869 98.0668 51.5201 89C51.7848 83.7866 55.9789 79.7605 60.1536 76.6829C64.3683 74.7447 68.4887 75.8727 71.5857 79.0989C72.5548 81.2063 70.4577 83.2193 70.3725 84.293C65.0595 90.447 60.6007 99.6866 63.5285 108.097C64.5079 111.248 69.105 93.6926 73.4592 86.4752C77.7385 81.3755 83.1664 74.2432 91.4072 76.4992C93.4396 77.6478 94.419 80.7991 93.3556 81.7579C90.9499 94.2339 73.0122 105.254 83.0516 117.004C89.3646 116.089 88.4692 108.828 91.6851 104.687C95.0056 98.5235 94.1852 89.1445 101.521 86.1314C105.746 85.2373 109.773 89.4314 108.559 94.6254C106.293 101.822 102.014 106.922 97.6494 113.095C96.5008 115.128 95.4025 119.344 98.4493 120.387C104.986 110.082 113.544 99.8829 125.125 95.0272C128.276 94.0479 134.504 94.2068 135.483 97.3581C137.442 103.661 129.032 106.589 123.688 109.611C118.355 113.677 115.119 118.766 111.884 123.856C121.338 120.918 127.725 114.849 135.155 108.77C136.189 107.715 138.317 108.834 139.286 110.942C139.296 111.986 139.211 113.059 139.221 114.103C135.911 121.31 129.534 125.387 124.266 129.328C128.376 129.412 134.719 128.592 136.742 131.733C139.754 136.033 132.452 135.789 129.301 136.768C120.956 136.535 107.371 137.301 109.469 138.324C115.718 140.571 122.969 138.632 128.108 144.05L128.034 146.168C121.626 150.149 114.43 147.883 108.181 145.636C103.007 143.474 96.8331 139.11 90.5407 142.112C97.8096 151.687 109.296 149.897 119.729 150.11C120.773 150.1 121.762 151.259 122.816 152.292C123.785 154.4 120.644 156.423 119.581 157.382C106.871 163.322 91.4333 158.799 80.0749 151.229C85.1203 159.714 92.2228 165.046 97.2683 173.531C98.2374 175.639 101.249 179.939 98.0785 181.866C80.438 178.343 72.5397 159.331 62.5002 147.581C63.1311 152.306 63.9284 161.274 67.2111 167.793C73.4437 180.098 83.0509 189.783 79.0762 190.809C72.6549 192.386 66.6208 190.491 61.521 186.212Z" fill="#6A8A50"/>
</svg>
