<svg width="143" height="30" viewBox="0 0 143 30" fill="none" xmlns="http://www.w3.org/2000/svg">
<path d="M18.6712 27.5684H17.0859L16.136 25.2756L17.7311 25.2756C17.8486 25.2752 17.9573 25.3377 18.0161 25.4394L18.9561 27.0771C19.0147 27.1787 19.0146 27.3038 18.9558 27.4052C18.897 27.5066 18.7884 27.5689 18.6712 27.5684Z" fill="#10FFCB"/>
<path d="M2.86401 25.2756L1.91414 27.5684H0.328845C0.211593 27.5689 0.103036 27.5066 0.0442078 27.4052C-0.0146199 27.3038 -0.0147435 27.1787 0.0438837 27.0771L0.983927 25.4394C1.04267 25.3377 1.1514 25.2752 1.26889 25.2756L2.86401 25.2756Z" fill="#10FFCB"/>
<path d="M13.4043 27.5684H5.59247L6.2279 25.2756H12.7689L12.818 25.4492L13.4043 27.5684Z" fill="#10FFCB"/>
<path d="M16.4177 23.6377H15.4547L14.7767 22L15.8543 22C15.9718 21.9995 16.0805 22.062 16.1392 22.1638L16.7026 23.1464C16.7612 23.2479 16.7611 23.3731 16.7023 23.4745C16.6435 23.5759 16.5349 23.6382 16.4177 23.6377Z" fill="#10FFCB"/>
<path d="M4.22331 22L3.54202 23.6377H2.58232C2.46507 23.6382 2.35651 23.5759 2.29769 23.4745C2.23886 23.3731 2.23874 23.2479 2.29736 23.1464L2.86073 22.1638C2.91948 22.062 3.02821 21.9995 3.14569 22L4.22331 22Z" fill="#10FFCB"/>
<path d="M12.3169 23.6377H6.68317L7.13517 22H11.8649L12.3169 23.6377Z" fill="#10FFCB"/>
<path d="M16.2146 29.5338H15.1278C14.8332 29.5338 14.5748 29.3372 14.4963 29.0533L14.0856 27.5685L13.4501 25.2757L11.5733 18.4858C11.5457 18.3873 11.5657 18.2815 11.6274 18.1999C11.6891 18.1182 11.7854 18.0701 11.8878 18.0698H12.2153C12.3487 18.0692 12.4692 18.1495 12.5199 18.2729L15.4252 25.2757L16.3784 27.5685L16.8179 28.6275C16.9017 28.8293 16.8794 29.0597 16.7582 29.2417C16.6371 29.4237 16.4332 29.5332 16.2146 29.5338Z" fill="#10FFCB"/>
<path d="M7.4267 18.4858L5.54989 25.2757L4.91446 27.5685L4.50372 29.0533C4.42521 29.3372 4.16682 29.5338 3.87222 29.5338H2.78708C2.56819 29.5338 2.36378 29.4244 2.24225 29.2424C2.12073 29.0603 2.09817 28.8296 2.18211 28.6275L2.62167 27.5685L3.57481 25.2757L6.4801 18.2729C6.5308 18.1495 6.6513 18.0692 6.78472 18.0698H7.11226C7.21459 18.0701 7.31091 18.1182 7.37261 18.1999C7.43432 18.2815 7.45433 18.3873 7.4267 18.4858Z" fill="#10FFCB"/>
<path d="M14.7308 20.6901H14.233L13.686 19.3799L14.3542 19.3799C14.4716 19.3794 14.5804 19.4419 14.6391 19.5437L15.0158 20.1987C15.0744 20.3003 15.0743 20.4254 15.0155 20.5268C14.9566 20.6283 14.8481 20.6905 14.7308 20.6901Z" fill="#10FFCB"/>
<path d="M5.31079 19.3799L4.76708 20.6901H4.26921C4.15196 20.6905 4.0434 20.6283 3.98458 20.5268C3.92575 20.4254 3.92563 20.3003 3.98425 20.1987L4.36092 19.5437C4.41967 19.4419 4.5284 19.3794 4.64589 19.3799L5.31079 19.3799Z" fill="#10FFCB"/>
<path d="M11.5012 20.69H7.49866L7.85895 19.3799H11.1409L11.5012 20.69Z" fill="#10FFCB"/>
<path d="M11.6217 15.7582V16.2851C11.6217 16.7043 11.3138 17.0531 10.9131 17.1125L10.7832 17.5911C10.7127 17.8509 10.4789 18.0327 10.2081 18.0327H8.92056C8.64969 18.0327 8.41594 17.8509 8.34544 17.5911L8.21928 17.1125C7.81485 17.0494 7.50688 16.7043 7.50688 16.2814V15.7545C7.50688 15.4725 7.73322 15.2461 8.01521 15.2461H11.1134C11.3954 15.2499 11.6217 15.4762 11.6217 15.7582ZM14.0076 8.65643C14.0076 9.8549 13.5326 10.9421 12.7608 11.7398C12.1746 12.3483 11.7961 13.1238 11.67 13.9512C11.6143 14.3074 11.3064 14.5709 10.9427 14.5709H8.18589C7.82598 14.5709 7.5143 14.3111 7.46236 13.9549C7.33249 13.1275 6.95032 12.3409 6.36407 11.7361C5.60714 10.9495 5.13592 9.88087 5.12479 8.70467C5.09881 6.23352 7.06534 4.2336 9.53649 4.21505C12.0039 4.19649 14.0076 6.19271 14.0076 8.65643ZM10.0671 5.96637C10.0671 5.6918 9.84445 5.46546 9.56617 5.46546C7.80001 5.46546 6.36036 6.9014 6.36036 8.67127C6.36036 8.94584 6.58299 9.17218 6.86127 9.17218C7.13584 9.17218 7.36218 8.94955 7.36218 8.67127C7.36218 7.45425 8.35286 6.46728 9.56617 6.46728C9.84445 6.46728 10.0671 6.24465 10.0671 5.96637ZM9.56617 2.75685C9.84074 2.75685 10.0671 2.53422 10.0671 2.25594V0.500908C10.0671 0.226336 9.84445 0 9.56617 0C9.28789 0 9.06526 0.222626 9.06526 0.500908V2.25594C9.06526 2.53422 9.2916 2.75685 9.56617 2.75685ZM3.6703 8.65272C3.6703 8.37815 3.44767 8.15181 3.16939 8.15181H1.41436C1.13979 8.15181 0.913452 8.37444 0.913452 8.65272C0.913452 8.92729 1.13608 9.15363 1.41436 9.15363H3.16939C3.44767 9.15363 3.6703 8.931 3.6703 8.65272ZM17.718 8.15181H15.9629C15.6884 8.15181 15.462 8.37444 15.462 8.65272C15.462 8.92729 15.6847 9.15363 15.9629 9.15363H17.718C17.9926 9.15363 18.2189 8.931 18.2189 8.65272C18.2189 8.37815 17.9963 8.15181 17.718 8.15181ZM4.69067 12.8232L3.44767 14.0662C3.25102 14.2629 3.25102 14.5783 3.44767 14.7749C3.54415 14.8714 3.67401 14.9196 3.80016 14.9196C3.92632 14.9196 4.05618 14.8714 4.15266 14.7749L5.39565 13.5319C5.5923 13.3353 5.5923 13.0199 5.39565 12.8232C5.20271 12.6266 4.88361 12.6266 4.69067 12.8232ZM14.0892 4.63061C14.2153 4.63061 14.3452 4.58238 14.4417 4.48591L15.6847 3.24291C15.8813 3.04626 15.8813 2.73088 15.6847 2.53422C15.488 2.33757 15.1726 2.33757 14.976 2.53422L13.733 3.77722C13.5363 3.97387 13.5363 4.28926 13.733 4.48591C13.8332 4.58238 13.9593 4.63061 14.0892 4.63061ZM4.69067 4.4822C4.78714 4.57867 4.917 4.6269 5.04316 4.6269C5.16931 4.6269 5.29918 4.57867 5.39565 4.4822C5.5923 4.28554 5.5923 3.97016 5.39565 3.77351L4.15266 2.53051C3.956 2.33386 3.64062 2.33386 3.44396 2.53051C3.24731 2.72716 3.24731 3.04255 3.44396 3.2392L4.69067 4.4822ZM14.4417 12.8232C14.245 12.6266 13.9296 12.6266 13.733 12.8232C13.5363 13.0199 13.5363 13.3353 13.733 13.5319L14.976 14.7749C15.0724 14.8714 15.2023 14.9196 15.3285 14.9196C15.4546 14.9196 15.5845 14.8714 15.681 14.7749C15.8776 14.5783 15.8776 14.2629 15.681 14.0662L14.4417 12.8232Z" fill="#10FFCB"/>
<path d="M33.256 19.608L30.952 10.608C29.816 11.04 28.936 11.712 28.312 12.624C27.688 13.52 27.376 14.624 27.376 15.936C27.376 16.528 27.432 16.944 27.544 17.184C27.656 17.408 27.712 17.536 27.712 17.568C26.848 17.568 26.2 17.392 25.768 17.04C25.352 16.672 25.144 16.072 25.144 15.24C25.144 14.216 25.56 13.224 26.392 12.264C27.24 11.288 28.32 10.504 29.632 9.912C30.944 9.304 32.256 9 33.568 9C33.792 9 34.112 9.016 34.528 9.048L36.616 17.64L40.168 9.12H41.752L37.096 19.608L35.512 27H31.672L33.256 19.608ZM43.3868 27.096C42.2028 27.096 41.2668 26.792 40.5788 26.184C39.8908 25.576 39.5468 24.616 39.5468 23.304C39.5468 22.216 39.7708 21.008 40.2188 19.68C40.6668 18.352 41.3868 17.208 42.3788 16.248C43.3708 15.272 44.6188 14.784 46.1228 14.784C48.1708 14.784 49.1948 16.064 49.1948 18.624V18.648C49.2428 18.664 49.3308 18.672 49.4588 18.672C49.9868 18.672 50.5948 18.536 51.2828 18.264C51.9708 17.976 52.5948 17.632 53.1548 17.232L53.3708 17.88C52.9068 18.376 52.2988 18.8 51.5468 19.152C50.8108 19.488 50.0028 19.728 49.1228 19.872C48.9948 21.328 48.6668 22.6 48.1388 23.688C47.6108 24.776 46.9308 25.616 46.0988 26.208C45.2668 26.8 44.3628 27.096 43.3868 27.096ZM44.3468 24.936C44.7308 24.936 45.1148 24.72 45.4988 24.288C45.8828 23.84 46.2188 23.24 46.5068 22.488C46.7948 21.72 47.0028 20.872 47.1308 19.944C46.6988 19.848 46.4828 19.512 46.4828 18.936C46.4828 18.28 46.7308 17.848 47.2268 17.64C47.1948 17.112 47.1148 16.752 46.9868 16.56C46.8588 16.352 46.6348 16.248 46.3148 16.248C45.7868 16.248 45.2748 16.632 44.7788 17.4C44.2828 18.168 43.8828 19.088 43.5788 20.16C43.2748 21.232 43.1228 22.176 43.1228 22.992C43.1228 23.76 43.2108 24.28 43.3868 24.552C43.5628 24.808 43.8828 24.936 44.3468 24.936ZM52.8057 27.144C52.0377 27.144 51.4137 26.904 50.9337 26.424C50.4697 25.944 50.2377 25.224 50.2377 24.264C50.2377 23.864 50.3017 23.344 50.4297 22.704L52.0617 15H55.5177L53.7897 23.16C53.7417 23.352 53.7177 23.552 53.7177 23.76C53.7177 24.464 53.9577 24.816 54.4377 24.816C54.8857 24.816 55.2697 24.632 55.5897 24.264C55.9097 23.88 56.1657 23.36 56.3577 22.704L57.9897 15H61.4457L59.7177 23.16C59.6537 23.4 59.6217 23.656 59.6217 23.928C59.6217 24.248 59.6937 24.48 59.8377 24.624C59.9977 24.752 60.2537 24.816 60.6057 24.816C60.8617 24.816 61.0457 24.8 61.1577 24.768C61.2857 24.72 61.3657 24.688 61.3977 24.672C61.3337 25.488 61.0537 26.104 60.5577 26.52C60.0617 26.936 59.4537 27.144 58.7337 27.144C58.0617 27.144 57.5177 26.944 57.1017 26.544C56.7017 26.144 56.4617 25.584 56.3817 24.864C55.8377 25.744 55.2617 26.344 54.6537 26.664C54.0617 26.984 53.4457 27.144 52.8057 27.144ZM66.9653 11.736L70.5173 11.256L68.8133 19.272C69.5813 19.208 70.2853 18.872 70.9253 18.264C71.5813 17.656 72.0933 16.904 72.4613 16.008C72.8293 15.112 73.0133 14.232 73.0133 13.368C73.0133 12.408 72.7653 11.624 72.2693 11.016C71.7733 10.408 71.0293 10.104 70.0373 10.104C68.0853 10.104 66.5573 10.616 65.4533 11.64C64.3653 12.664 63.8213 14.096 63.8213 15.936C63.8213 16.528 63.8773 16.944 63.9893 17.184C64.1013 17.408 64.1573 17.536 64.1573 17.568C63.2933 17.568 62.6453 17.392 62.2133 17.04C61.7973 16.672 61.5893 16.072 61.5893 15.24C61.5893 14.216 62.0053 13.224 62.8373 12.264C63.6853 11.288 64.7653 10.504 66.0773 9.912C67.3893 9.304 68.7013 9 70.0133 9C71.2773 9 72.3333 9.216 73.1813 9.648C74.0293 10.08 74.6533 10.656 75.0533 11.376C75.4693 12.08 75.6773 12.864 75.6773 13.728C75.6773 14.768 75.3893 15.784 74.8133 16.776C74.2533 17.768 73.4453 18.584 72.3893 19.224C71.3333 19.848 70.1173 20.16 68.7413 20.16H68.6213L67.1573 27H63.7013L66.9653 11.736ZM79.2111 13.704C78.6831 13.704 78.2351 13.52 77.8671 13.152C77.4991 12.784 77.3151 12.336 77.3151 11.808C77.3151 11.28 77.4991 10.832 77.8671 10.464C78.2351 10.08 78.6831 9.888 79.2111 9.888C79.7391 9.888 80.1871 10.08 80.5551 10.464C80.9391 10.832 81.1311 11.28 81.1311 11.808C81.1311 12.336 80.9391 12.784 80.5551 13.152C80.1871 13.52 79.7391 13.704 79.2111 13.704ZM77.5791 27.144C76.8111 27.144 76.1871 26.904 75.7071 26.424C75.2431 25.944 75.0111 25.224 75.0111 24.264C75.0111 23.864 75.0751 23.344 75.2031 22.704L76.8351 15H80.2911L78.5631 23.16C78.4991 23.4 78.4671 23.656 78.4671 23.928C78.4671 24.248 78.5391 24.48 78.6831 24.624C78.8431 24.752 79.0991 24.816 79.4511 24.816C79.9151 24.816 80.3471 24.624 80.7471 24.24C81.1471 23.84 81.4351 23.328 81.6111 22.704H82.6191C82.0271 24.432 81.2671 25.608 80.3391 26.232C79.4111 26.84 78.4911 27.144 77.5791 27.144ZM83.9776 27.144C83.2096 27.144 82.5856 26.904 82.1056 26.424C81.6416 25.944 81.4096 25.224 81.4096 24.264C81.4096 23.864 81.4736 23.344 81.6016 22.704L83.0416 15.96H82.2496L82.4416 15H83.2336L83.9536 11.688L87.5056 11.208L86.6896 15H88.1296L87.9376 15.96H86.4976L84.9616 23.16C84.8976 23.4 84.8656 23.656 84.8656 23.928C84.8656 24.248 84.9376 24.48 85.0816 24.624C85.2416 24.752 85.4976 24.816 85.8496 24.816C86.3136 24.816 86.7456 24.624 87.1456 24.24C87.5456 23.84 87.8336 23.328 88.0096 22.704H89.0176C88.4256 24.432 87.6656 25.608 86.7376 26.232C85.8096 26.84 84.8896 27.144 83.9776 27.144ZM91.432 27.144C90.248 27.144 89.328 26.84 88.672 26.232C88.016 25.608 87.688 24.64 87.688 23.328C87.688 22.224 87.904 21.008 88.336 19.68C88.784 18.352 89.488 17.208 90.448 16.248C91.424 15.272 92.656 14.784 94.144 14.784C95.104 14.784 95.784 14.992 96.184 15.408C96.6 15.824 96.808 16.352 96.808 16.992C96.808 17.552 96.688 17.984 96.448 18.288C96.208 18.592 95.904 18.744 95.536 18.744C95.264 18.744 94.984 18.648 94.696 18.456C94.888 17.928 94.984 17.456 94.984 17.04C94.984 16.736 94.928 16.496 94.816 16.32C94.704 16.144 94.536 16.056 94.312 16.056C93.832 16.056 93.352 16.448 92.872 17.232C92.392 18.016 92 18.968 91.696 20.088C91.392 21.208 91.24 22.216 91.24 23.112C91.24 23.896 91.376 24.432 91.648 24.72C91.92 24.992 92.36 25.128 92.968 25.128C93.832 25.128 94.568 24.928 95.176 24.528C95.8 24.128 96.48 23.52 97.216 22.704H98.032C96.256 25.664 94.056 27.144 91.432 27.144ZM105.443 27.144C104.595 27.144 103.979 26.888 103.595 26.376C103.211 25.864 103.019 25.216 103.019 24.432C103.019 24.096 103.059 23.72 103.139 23.304C103.219 22.872 103.299 22.456 103.379 22.056C103.475 21.656 103.539 21.4 103.571 21.288C103.699 20.728 103.819 20.176 103.931 19.632C104.043 19.088 104.099 18.648 104.099 18.312C104.099 17.496 103.811 17.088 103.235 17.088C102.851 17.088 102.499 17.264 102.179 17.616C101.875 17.968 101.627 18.432 101.435 19.008L99.7309 27H96.2749L99.7549 10.68L103.307 10.2L102.011 16.224C102.811 15.344 103.747 14.904 104.819 14.904C105.635 14.904 106.283 15.128 106.763 15.576C107.243 16.024 107.483 16.704 107.483 17.616C107.483 18.08 107.427 18.6 107.315 19.176C107.203 19.736 107.043 20.424 106.835 21.24C106.707 21.736 106.587 22.224 106.475 22.704C106.379 23.168 106.331 23.536 106.331 23.808C106.331 24.128 106.403 24.376 106.547 24.552C106.691 24.728 106.939 24.816 107.291 24.816C107.675 24.816 107.939 24.768 108.083 24.672C107.987 25.488 107.691 26.104 107.195 26.52C106.715 26.936 106.131 27.144 105.443 27.144Z" fill="white"/>
</svg>
