<svg width="195" height="237" viewBox="0 0 195 237" fill="none" xmlns="http://www.w3.org/2000/svg">
<path d="M15.3632 90.5503C15.3632 90.5503 28.0059 105.157 33.5071 111.729C50.1929 113.023 66.8127 114.316 83.4981 115.676C85.5427 115.821 87.5214 115.966 89.5655 116.177C91.9396 116.39 94.6344 118.058 96.74 118.996C106.413 123.283 116.085 127.636 125.757 131.923C130.89 134.2 135.956 136.477 141.089 138.755C141.352 138.889 141.614 139.154 141.941 139.619C142.399 140.282 142.854 141.341 143.308 142.599C162.294 166.16 193.458 163.055 193.458 163.055L193.361 178.44C167.265 183.557 147.3 179.139 145.489 173.383C140.313 157.107 92.9708 130.725 90.6623 130.579C87.2989 130.293 29.6923 120.223 28.3171 118.563C23.5372 112.722 18.6908 106.947 13.9109 101.106C10.4401 96.9242 11.8925 86.3684 15.3632 90.5503Z" fill="#375323"/>
<path d="M45.0417 103.284C45.0417 103.284 30.1432 101.077 32.8452 112.055C32.8452 112.055 34.5857 108.104 37.3557 108.32C37.3557 108.32 31.3305 111.583 37.3069 116.045C37.3069 116.045 39.8701 107.213 44.9933 110.943C50.116 114.739 50.6384 105.168 50.6384 105.168L45.0417 103.284Z" fill="#030A03"/>
<path d="M50.0906 108.334C50.0906 108.334 35.1921 106.127 37.8941 117.105C37.8941 117.105 39.6346 113.154 42.4046 113.37C42.4046 113.37 36.3794 116.633 42.3558 121.095C42.3558 121.095 44.919 112.263 50.0422 115.993C55.165 119.789 55.6874 110.218 55.6874 110.218L50.0906 108.334Z" fill="#DCBA7D"/>
<path d="M10.3564 5.73473C10.3564 5.73473 11.5849 -0.728561 22.6644 0.199843C30.3145 0.842455 40.9664 6.78652 44.6038 15.9218C48.2412 25.0571 45.901 29.9286 54.7564 38.2384C63.6118 46.5483 94.0926 151.598 81.169 150.13C81.169 150.13 92.8495 223.036 83.9226 205.151C83.9226 205.151 88.6476 240.574 83.4046 234.928C78.1615 229.282 68.2791 132.88 63.7948 122.023C59.3104 111.166 41.4891 112.043 24.1458 79.0503C6.86883 45.9917 22.3243 33.1472 25.2036 26.4963C28.083 19.8453 10.3564 5.73473 10.3564 5.73473Z" fill="#A9271D"/>
<path d="M29.3773 44.7472C29.3773 44.7472 32.8762 86.2369 37.8682 79.4012C37.8682 79.4012 41.0422 99.2305 47.7409 93.7923C47.7409 93.7923 62.5812 126.109 64.9789 112.126C64.9789 112.126 76.2214 129.035 74.2515 117.071C74.2515 117.071 93.0422 140.3 79.2008 96.104C65.2934 51.9074 28.5185 24.008 29.3773 44.7472Z" fill="#375323"/>
<path d="M37.8349 74.2505C37.8349 74.2505 41.0089 94.0799 47.7076 88.6416C47.7076 88.6416 62.5478 120.959 64.9456 106.975C64.9456 106.975 76.1881 123.884 74.2182 111.92C74.2182 111.92 82.5332 122.207 84.024 116.01C85.8398 131.473 74.1856 117.07 74.1856 117.07C76.222 128.969 64.9131 112.125 64.9131 112.125C62.5813 126.109 47.6751 93.7919 47.6751 93.7919C40.9767 99.1641 37.8024 79.4007 37.8024 79.4007C32.8764 86.2369 29.3114 44.7468 29.3114 44.7468C29.2529 43.5579 29.3256 42.5018 29.529 41.6447C30.3346 49.9037 33.5746 80.1664 37.8349 74.2505Z" fill="#030A03"/>
<path d="M72.0976 71.5616C72.0976 71.5616 82.5475 99.0306 78.3334 97.6173C74.1194 96.204 70.1279 90.8963 70.1279 90.8963C70.1279 90.8963 70.9489 96.7122 67.1345 94.7072C63.3197 92.7682 57.2652 79.7878 57.2652 79.7878C57.2652 79.7878 60.6938 90.6386 57.2076 88.8998C53.7218 87.0949 46.0658 76.9438 43.4787 68.6735C43.4787 68.6735 43.9723 74.0912 41.6738 72.3599C39.4417 70.5629 27.7971 54.6419 31.0535 40.5318C34.3763 26.3561 72.0976 71.5616 72.0976 71.5616Z" fill="#ADB77C"/>
<path d="M39.5348 66.2715C41.7669 68.0684 41.3397 62.5852 41.3397 62.5852C43.9268 70.8554 51.5168 81.0061 55.0686 82.8114C58.5543 84.6162 55.1261 73.6995 55.1261 73.6995C55.1261 73.6995 61.1807 86.6798 64.9955 88.6188C68.8103 90.5578 67.9889 84.8079 67.9889 84.8079C67.9889 84.8079 71.9804 90.1156 76.1944 91.5289C79.1573 92.5381 74.8856 79.3709 72.0988 71.3635C72.1644 71.43 72.164 71.496 72.164 71.496C72.164 71.496 82.6139 98.9649 78.3998 97.5517C74.1858 96.1384 70.1943 90.8307 70.1943 90.8307C70.1943 90.8307 71.0153 96.6466 67.2009 94.6416C63.3861 92.7026 57.3315 79.7222 57.3315 79.7222C57.3315 79.7222 60.7602 90.573 57.274 88.8341C53.7882 87.0293 46.1322 76.8782 43.5451 68.6079C43.5451 68.6079 44.0387 74.0256 41.7402 72.2943C40.2301 71.0962 34.5373 63.5326 31.8892 54.4697C34.7532 60.6947 38.3526 65.4056 39.5348 66.2715Z" fill="#6A8A50"/>
<path d="M71.5085 81.2645C71.5085 81.2645 77.8376 71.6639 59.0811 43.02C40.3906 14.3765 29.0432 34.9725 29.3234 42.832C29.6037 50.6914 40.0757 64.228 38.2055 46.916C38.2055 46.916 45.8637 77.6028 50.1553 56.3019C50.1553 56.3019 62.132 82.3278 62.4276 66.8784C62.428 66.8123 68.1698 87.5163 71.5085 81.2645Z" fill="#D55A56"/>
<path opacity="0.6" d="M38.2961 43.0207C38.2961 43.0207 45.9543 73.7075 50.2459 52.4066C50.2459 52.4066 62.2226 78.4325 62.5181 62.9831C62.5181 62.9831 68.2599 83.6871 71.533 77.3688C71.533 77.3688 72.1991 76.3825 72.4781 74.0072C72.9078 79.0943 71.5088 81.1984 71.5088 81.1984C68.1701 87.4503 62.4939 66.8127 62.4939 66.8127C62.1988 82.1961 50.2217 56.2363 50.2217 56.2363C46.4049 75.4932 39.7544 52.4064 38.5304 47.7104C38.5379 46.5219 38.4819 44.9368 38.2961 43.0207Z" fill="#A9271D"/>
<path opacity="0.6" d="M38.3934 48.5019C39.4216 63.2994 29.6713 50.4277 29.3238 42.7659C29.3284 42.0396 29.3334 41.2473 29.5363 40.4562C30.681 47.2646 37.4872 56.1558 38.3934 48.5019Z" fill="#A9271D"/>
<path d="M15.2871 8.60521C15.2871 8.60521 27.7217 3.92954 34.144 10.9034C40.6328 17.8116 36.9438 27.2968 36.9438 27.2968C36.9438 27.2968 32.9715 29.3847 28.0011 22.354C28.0011 22.354 33.0805 33.0171 25.3465 35.2133C17.6125 37.4095 15.0112 31.3842 15.0112 31.3842L15.2871 8.60521Z" fill="white"/>
<path d="M16.2125 8.34693C16.2125 8.34693 26.5739 28.9481 15.7304 32.4452C15.7304 32.4452 10.1879 32.4102 9.37186 25.802C9.37186 25.802 18.0806 25.989 11.9062 11.093C8.65634 3.28083 16.2125 8.34693 16.2125 8.34693Z" fill="#030A03"/>
<path d="M16.8623 9.93579C15.9606 6.43045 12.8679 5.09029 10.3564 5.73473C6.85351 6.63703 -6.37737 22.4669 7.805 33.5837C7.805 33.5837 5.46052 28.6826 7.465 24.7334C9.46948 20.7842 19.8804 23.0951 16.8623 9.93579Z" fill="#DCBA7D"/>
<path d="M29.7818 12.0644C29.7697 13.9792 28.2425 15.4883 26.329 15.4762C24.4156 15.4641 22.9076 13.9358 22.9197 12.021C22.9318 10.1062 24.459 8.59713 26.3724 8.60922C28.2859 8.62131 29.7939 10.1496 29.7818 12.0644Z" fill="#030A03"/>
</svg>
