<svg width="272" height="63" viewBox="0 0 272 63" fill="none" xmlns="http://www.w3.org/2000/svg">
<path d="M88.07 13.446V40.012C88.07 48.522 91.992 52.814 99.91 52.814C105.164 52.814 109.456 50.964 112.194 47.856L113.008 52H122.628V13.446H111.454V40.752C109.974 42.084 107.014 43.786 104.128 43.786C100.576 43.786 99.244 41.936 99.244 37.792V13.446H88.07Z" fill="#181D3A"/>
<path d="M143.283 52V24.398C144.763 22.918 147.575 21.66 149.869 21.66C153.051 21.66 154.161 23.584 154.161 27.21V52H165.335V25.286C165.335 24.916 165.261 24.62 165.261 24.324C166.667 22.844 169.553 21.66 171.625 21.66C174.881 21.66 175.991 23.584 175.991 27.21V52H187.165V25.434C187.165 16.85 183.317 12.632 175.621 12.632C170.441 12.632 166.371 14.63 163.633 17.442C161.857 13.964 158.379 12.632 153.791 12.632C148.833 12.632 145.133 14.556 142.099 17.072L141.581 13.446H132.109V52H143.283Z" fill="#181D3A"/>
<path d="M210.143 52.888C219.689 52.888 227.163 48.67 227.163 39.938C227.163 30.91 219.985 29.43 213.621 28.246C208.811 27.358 205.703 26.766 205.703 23.732C205.703 21.586 207.257 20.032 210.957 20.032C215.027 20.032 216.655 22.326 217.543 25.656L226.497 22.992C224.647 16.48 219.837 12.632 211.105 12.632C202.447 12.632 195.047 16.702 195.047 25.138C195.047 34.536 202.817 35.942 208.959 37.126C213.325 37.94 216.359 38.754 216.359 41.714C216.359 44.23 214.287 45.488 210.513 45.488C205.259 45.488 203.705 42.602 202.817 39.568L193.789 42.676C195.047 49.114 200.301 52.888 210.143 52.888Z" fill="#181D3A"/>
<path d="M251.656 52.888C265.494 52.888 271.266 44.674 271.266 32.094C271.266 20.698 266.086 12.632 252.692 12.632C239.298 12.632 232.86 20.55 232.86 32.908C232.86 44.452 237.67 52.888 251.656 52.888ZM252.174 44.6C246.698 44.6 244.552 41.196 244.552 32.612C244.552 24.25 247.364 21.068 252.396 21.068C257.354 21.068 259.648 24.028 259.648 32.464C259.648 41.492 257.058 44.6 252.174 44.6Z" fill="#181D3A"/>
<path d="M65.3737 16.3161L37.879 0.933538C36.7854 0.321696 35.5519 0.00020638 34.2973 9.93315e-08C33.0427 -0.000206182 31.8091 0.320878 30.7153 0.932361L3.20978 16.3088C2.20707 16.8693 1.43587 17.7647 1.03259 18.8365C0.629308 19.9083 0.619923 21.0875 1.0061 22.1655L10.7073 49.2474C11.0958 50.3319 11.8593 51.2435 12.8613 51.8191L30.6267 62.0255C31.7374 62.6635 32.9971 62.9997 34.2796 63.0001C35.562 63.0006 36.822 62.6653 37.9331 62.028L55.7181 51.8269C56.7215 51.2513 57.4861 50.339 57.875 49.2534L67.5761 22.1721C67.9622 21.0944 67.9529 19.9154 67.5499 18.8438C67.1469 17.7722 66.3761 16.8768 65.3737 16.3161Z" fill="url(#paint0_linear)"/>
<path opacity="0.4" d="M31.8949 54.8789L20.4681 48.4877C20.2041 48.3401 19.9845 48.1252 19.8316 47.8652C19.6787 47.6051 19.5981 47.3093 19.5981 47.008C19.5981 46.7067 19.6787 46.4109 19.8316 46.1508C19.9845 45.8908 20.2041 45.6759 20.4681 45.5283L31.8948 39.1368C32.6241 38.7289 33.4465 38.5146 34.283 38.5146C35.1196 38.5146 35.942 38.7289 36.6712 39.1368L48.098 45.5283C48.3619 45.6759 48.5816 45.8908 48.7345 46.1508C48.8874 46.4109 48.968 46.7067 48.968 47.008C48.968 47.3093 48.8874 47.6051 48.7345 47.8652C48.5816 48.1252 48.3619 48.3401 48.098 48.4877L36.6712 54.8789C35.942 55.2868 35.1196 55.501 34.283 55.501C33.4465 55.501 32.6241 55.2868 31.8949 54.8789Z" fill="white"/>
<path opacity="0.7" d="M31.8949 46.9552L15.53 37.802C15.2661 37.6544 15.0464 37.4395 14.8935 37.1795C14.7406 36.9194 14.66 36.6236 14.66 36.3223C14.66 36.021 14.7406 35.7251 14.8935 35.4651C15.0464 35.205 15.2661 34.9902 15.53 34.8425L31.8949 25.6894C32.6241 25.2816 33.4465 25.0673 34.283 25.0673C35.1195 25.0673 35.9419 25.2816 36.6711 25.6894L53.036 34.8425C53.2999 34.9902 53.5196 35.205 53.6725 35.4651C53.8254 35.7251 53.906 36.021 53.906 36.3223C53.906 36.6236 53.8254 36.9194 53.6725 37.1795C53.5196 37.4395 53.2999 37.6544 53.036 37.802L36.6711 46.9552C35.9419 47.363 35.1195 47.5772 34.283 47.5772C33.4465 47.5772 32.6241 47.363 31.8949 46.9552Z" fill="white"/>
<path d="M31.8948 36.4653L9.11035 23.7213C8.84641 23.5736 8.62671 23.3588 8.47381 23.0987C8.32091 22.8387 8.24033 22.5428 8.24033 22.2415C8.24033 21.9402 8.32091 21.6444 8.47381 21.3843C8.62671 21.1243 8.84641 20.9094 9.11035 20.7618L31.8949 8.01808C32.6241 7.61023 33.4465 7.396 34.283 7.396C35.1195 7.396 35.9419 7.61023 36.6711 8.01808L59.4556 20.7618C59.7195 20.9094 59.9392 21.1243 60.0921 21.3843C60.245 21.6444 60.3256 21.9402 60.3256 22.2415C60.3256 22.5428 60.245 22.8387 60.0921 23.0987C59.9392 23.3588 59.7195 23.5736 59.4556 23.7213L36.6711 36.4653C35.9419 36.8731 35.1195 37.0874 34.283 37.0874C33.4465 37.0874 32.6241 36.8731 31.8948 36.4653Z" fill="white"/>
<defs>
<linearGradient id="paint0_linear" x1="34.291" y1="16.6801" x2="34.291" y2="52.185" gradientUnits="userSpaceOnUse">
<stop stop-color="#2138BF"/>
<stop offset="0.9996" stop-color="#2865D7"/>
</linearGradient>
</defs>
</svg>
