<svg width="813" height="159" viewBox="0 0 813 159" fill="none" xmlns="http://www.w3.org/2000/svg">
<path d="M152.17 120H138.693V54.5938H152.17V120ZM161.828 95.3379C161.828 87.7611 163.52 81.7266 166.904 77.2344C170.318 72.7422 174.975 70.4961 180.875 70.4961C185.607 70.4961 189.515 72.263 192.6 75.7969V51H205.627V120H193.902L193.273 114.834C190.039 118.877 185.876 120.898 180.785 120.898C175.065 120.898 170.468 118.652 166.994 114.16C163.55 109.638 161.828 103.364 161.828 95.3379ZM174.811 96.2812C174.811 100.833 175.604 104.322 177.191 106.748C178.779 109.174 181.085 110.387 184.109 110.387C188.122 110.387 190.952 108.695 192.6 105.311V86.1289C190.982 82.7448 188.182 81.0527 184.199 81.0527C177.94 81.0527 174.811 86.1289 174.811 96.2812ZM238.061 120.898C230.933 120.898 225.123 118.712 220.631 114.34C216.169 109.967 213.938 104.143 213.938 96.8652V95.6074C213.938 90.7259 214.881 86.3685 216.768 82.5352C218.654 78.6719 221.32 75.707 224.764 73.6406C228.238 71.5443 232.191 70.4961 236.623 70.4961C243.271 70.4961 248.497 72.5924 252.301 76.7852C256.134 80.9779 258.051 86.9225 258.051 94.6191V99.9199H227.1C227.519 103.094 228.777 105.64 230.873 107.557C232.999 109.473 235.68 110.432 238.914 110.432C243.915 110.432 247.824 108.62 250.639 104.996L257.018 112.139C255.071 114.894 252.436 117.05 249.111 118.607C245.787 120.135 242.104 120.898 238.061 120.898ZM236.578 81.0078C234.003 81.0078 231.906 81.8763 230.289 83.6133C228.702 85.3503 227.684 87.8359 227.234 91.0703H245.293V90.0371C245.233 87.1621 244.454 84.946 242.957 83.3887C241.46 81.8014 239.333 81.0078 236.578 81.0078ZM293.629 120C293.03 118.832 292.596 117.38 292.326 115.643C289.182 119.146 285.094 120.898 280.062 120.898C275.301 120.898 271.348 119.521 268.203 116.766C265.089 114.01 263.531 110.536 263.531 106.344C263.531 101.193 265.433 97.2396 269.236 94.4844C273.07 91.7292 278.595 90.3366 285.812 90.3066H291.787V87.5215C291.787 85.2754 291.203 83.4785 290.035 82.1309C288.897 80.7832 287.085 80.1094 284.6 80.1094C282.413 80.1094 280.691 80.6335 279.434 81.6816C278.206 82.7298 277.592 84.1673 277.592 85.9941H264.609C264.609 83.179 265.478 80.5736 267.215 78.1777C268.952 75.7819 271.408 73.9102 274.582 72.5625C277.757 71.1849 281.32 70.4961 285.273 70.4961C291.263 70.4961 296.01 72.0085 299.514 75.0332C303.048 78.028 304.814 82.2507 304.814 87.7012V108.77C304.844 113.382 305.488 116.87 306.746 119.236V120H293.629ZM282.893 110.971C284.809 110.971 286.576 110.551 288.193 109.713C289.811 108.844 291.008 107.691 291.787 106.254V97.8984H286.936C280.437 97.8984 276.978 100.145 276.559 104.637L276.514 105.4C276.514 107.018 277.083 108.35 278.221 109.398C279.359 110.447 280.916 110.971 282.893 110.971ZM369.367 88.7793C369.367 95.2181 368.229 100.863 365.953 105.715C363.677 110.566 360.413 114.31 356.16 116.945C351.938 119.581 347.086 120.898 341.605 120.898C336.185 120.898 331.348 119.596 327.096 116.99C322.843 114.385 319.549 110.671 317.213 105.85C314.877 100.998 313.694 95.4277 313.664 89.1387V85.9043C313.664 79.4655 314.817 73.8053 317.123 68.9238C319.459 64.0124 322.738 60.2539 326.961 57.6484C331.214 55.013 336.065 53.6953 341.516 53.6953C346.966 53.6953 351.803 55.013 356.025 57.6484C360.278 60.2539 363.557 64.0124 365.863 68.9238C368.199 73.8053 369.367 79.4505 369.367 85.8594V88.7793ZM355.711 85.8145C355.711 78.9564 354.483 73.7454 352.027 70.1816C349.572 66.6178 346.068 64.8359 341.516 64.8359C336.993 64.8359 333.505 66.6029 331.049 70.1367C328.593 73.6406 327.35 78.7917 327.32 85.5898V88.7793C327.32 95.4577 328.548 100.639 331.004 104.322C333.46 108.006 336.993 109.848 341.605 109.848C346.128 109.848 349.602 108.081 352.027 104.547C354.453 100.983 355.681 95.8021 355.711 89.0039V85.8145ZM390.256 71.3945L390.66 77.0098C394.134 72.6673 398.791 70.4961 404.631 70.4961C409.782 70.4961 413.615 72.0085 416.131 75.0332C418.646 78.0579 419.934 82.5801 419.994 88.5996V120H407.012V88.9141C407.012 86.1589 406.413 84.1673 405.215 82.9395C404.017 81.6816 402.025 81.0527 399.24 81.0527C395.587 81.0527 392.846 82.61 391.02 85.7246V120H378.037V71.3945H390.256ZM454.943 96.0566H444.207V120H430.73V54.5938H455.033C462.76 54.5938 468.719 56.3158 472.912 59.7598C477.105 63.2038 479.201 68.0703 479.201 74.3594C479.201 78.8216 478.228 82.5501 476.281 85.5449C474.365 88.5098 471.445 90.8757 467.521 92.6426L481.672 119.371V120H467.207L454.943 96.0566ZM444.207 85.1406H455.078C458.462 85.1406 461.083 84.2871 462.939 82.5801C464.796 80.8431 465.725 78.4622 465.725 75.4375C465.725 72.3529 464.841 69.9271 463.074 68.1602C461.337 66.3932 458.657 65.5098 455.033 65.5098H444.207V85.1406ZM516.801 120C516.202 118.832 515.768 117.38 515.498 115.643C512.354 119.146 508.266 120.898 503.234 120.898C498.473 120.898 494.52 119.521 491.375 116.766C488.26 114.01 486.703 110.536 486.703 106.344C486.703 101.193 488.605 97.2396 492.408 94.4844C496.242 91.7292 501.767 90.3366 508.984 90.3066H514.959V87.5215C514.959 85.2754 514.375 83.4785 513.207 82.1309C512.069 80.7832 510.257 80.1094 507.771 80.1094C505.585 80.1094 503.863 80.6335 502.605 81.6816C501.378 82.7298 500.764 84.1673 500.764 85.9941H487.781C487.781 83.179 488.65 80.5736 490.387 78.1777C492.124 75.7819 494.579 73.9102 497.754 72.5625C500.928 71.1849 504.492 70.4961 508.445 70.4961C514.435 70.4961 519.182 72.0085 522.686 75.0332C526.219 78.028 527.986 82.2507 527.986 87.7012V108.77C528.016 113.382 528.66 116.87 529.918 119.236V120H516.801ZM506.064 110.971C507.981 110.971 509.748 110.551 511.365 109.713C512.982 108.844 514.18 107.691 514.959 106.254V97.8984H510.107C503.609 97.8984 500.15 100.145 499.73 104.637L499.686 105.4C499.686 107.018 500.255 108.35 501.393 109.398C502.531 110.447 504.088 110.971 506.064 110.971ZM551.66 120H538.633V71.3945H551.66V120ZM537.869 58.8164C537.869 56.8698 538.513 55.2676 539.801 54.0098C541.118 52.752 542.9 52.123 545.146 52.123C547.363 52.123 549.13 52.752 550.447 54.0098C551.765 55.2676 552.424 56.8698 552.424 58.8164C552.424 60.793 551.75 62.4102 550.402 63.668C549.085 64.9258 547.333 65.5547 545.146 65.5547C542.96 65.5547 541.193 64.9258 539.846 63.668C538.528 62.4102 537.869 60.793 537.869 58.8164ZM576.098 120H563.07V51H576.098V120ZM613.158 106.568C613.158 104.981 612.365 103.738 610.777 102.84C609.22 101.911 606.704 101.088 603.23 100.369C591.671 97.9434 585.891 93.0319 585.891 85.6348C585.891 81.3223 587.673 77.7285 591.236 74.8535C594.83 71.9486 599.517 70.4961 605.297 70.4961C611.466 70.4961 616.393 71.9486 620.076 74.8535C623.79 77.7585 625.646 81.5319 625.646 86.1738H612.664C612.664 84.3171 612.065 82.7897 610.867 81.5918C609.669 80.3639 607.798 79.75 605.252 79.75C603.066 79.75 601.374 80.2441 600.176 81.2324C598.978 82.2207 598.379 83.4785 598.379 85.0059C598.379 86.4434 599.053 87.6113 600.4 88.5098C601.778 89.3783 604.084 90.1419 607.318 90.8008C610.553 91.4297 613.278 92.1484 615.494 92.957C622.352 95.4727 625.781 99.8301 625.781 106.029C625.781 110.462 623.88 114.055 620.076 116.811C616.273 119.536 611.361 120.898 605.342 120.898C601.269 120.898 597.645 120.18 594.471 118.742C591.326 117.275 588.855 115.283 587.059 112.768C585.262 110.222 584.363 107.482 584.363 104.547H596.672C596.792 106.853 597.645 108.62 599.232 109.848C600.82 111.076 602.946 111.689 605.611 111.689C608.097 111.689 609.969 111.225 611.227 110.297C612.514 109.339 613.158 108.096 613.158 106.568Z" fill="white"/>
<path d="M100.235 148H91.7241L86.6248 135.691L95.1881 135.691C95.8188 135.688 96.4025 136.024 96.7179 136.57L101.764 145.362C102.079 145.907 102.078 146.579 101.763 147.123C101.447 147.668 100.864 148.002 100.235 148V148Z" fill="#10FFCB"/>
<path d="M15.3752 135.691L10.2759 148H1.76538C1.13592 148.002 0.553139 147.668 0.237326 147.123C-0.0784857 146.579 -0.0791495 145.907 0.235586 145.362L5.28213 136.57C5.59748 136.024 6.18122 135.688 6.81192 135.691L15.3752 135.691Z" fill="#10FFCB"/>
<path d="M71.9599 148H30.0225L33.4338 135.691H68.5486L68.8124 136.623L71.9599 148Z" fill="#10FFCB"/>
<path d="M88.137 126.899H82.9673L79.3275 118.107L85.1126 118.107C85.7433 118.104 86.327 118.44 86.6424 118.986L89.6668 124.261C89.9815 124.806 89.9808 125.478 89.665 126.022C89.3492 126.567 88.7664 126.901 88.137 126.899Z" fill="#10FFCB"/>
<path d="M22.6725 118.107L19.0151 126.899H13.863C13.2336 126.901 12.6508 126.567 12.335 126.022C12.0192 125.478 12.0185 124.806 12.3332 124.261L15.3576 118.986C15.673 118.44 16.2567 118.104 16.8874 118.107L22.6725 118.107Z" fill="#10FFCB"/>
<path d="M66.122 126.899H35.8779L38.3045 118.107H63.6955L66.122 126.899Z" fill="#10FFCB"/>
<path d="M87.0468 158.55H81.2125C79.6309 158.55 78.2438 157.494 77.8223 155.97L75.6173 147.999L72.2061 135.691L62.1305 99.2395C61.9822 98.7106 62.0896 98.1427 62.4209 97.7044C62.7522 97.2662 63.2692 97.0079 63.8186 97.0064H65.577C66.2932 97.0028 66.9401 97.434 67.2123 98.0966L82.8091 135.691L87.926 147.999L90.2857 153.684C90.7357 154.768 90.6156 156.005 89.9653 156.982C89.315 157.959 88.2203 158.547 87.0468 158.55V158.55Z" fill="#10FFCB"/>
<path d="M39.8695 99.2395L29.7939 135.691L26.3827 147.999L24.1777 155.97C23.7562 157.494 22.369 158.55 20.7875 158.55H14.962C13.787 158.55 12.6896 157.963 12.0372 156.985C11.3848 156.008 11.2637 154.769 11.7143 153.684L14.074 147.999L19.1909 135.691L34.7877 98.0966C35.0599 97.434 35.7068 97.0028 36.423 97.0064H38.1814C38.7308 97.0079 39.2478 97.2662 39.5791 97.7044C39.9104 98.1427 40.0178 98.7106 39.8695 99.2395V99.2395Z" fill="#10FFCB"/>
<path d="M79.0813 111.073H76.4086L73.4721 104.04L77.0592 104.04C77.6899 104.037 78.2736 104.373 78.589 104.919L80.6111 108.436C80.9258 108.981 80.9252 109.653 80.6094 110.197C80.2935 110.742 79.7108 111.076 79.0813 111.073V111.073Z" fill="#10FFCB"/>
<path d="M28.5103 104.04L25.5914 111.073H22.9187C22.2892 111.076 21.7064 110.742 21.3906 110.197C21.0748 109.653 21.0742 108.981 21.3889 108.436L23.411 104.919C23.7264 104.373 24.3101 104.037 24.9408 104.04L28.5103 104.04Z" fill="#10FFCB"/>
<path d="M61.7437 111.074H40.2563L42.1905 104.04H59.8095L61.7437 111.074Z" fill="#10FFCB"/>
<path d="M62.3902 84.5966V87.4251C62.3902 89.676 60.7369 91.5484 58.5857 91.8671L57.8885 94.4366C57.51 95.831 56.2551 96.807 54.801 96.807H47.8891C46.435 96.807 45.1801 95.831 44.8016 94.4366L44.1244 91.8671C41.9532 91.5285 40.2999 89.676 40.2999 87.4052V84.5767C40.2999 83.0628 41.515 81.8477 43.0288 81.8477H59.6613C61.1752 81.8677 62.3902 83.0827 62.3902 84.5966ZM75.1982 46.4714C75.1982 52.9052 72.6486 58.7415 68.5054 63.0242C65.3582 66.2909 63.3264 70.454 62.6492 74.896C62.3504 76.8082 60.6971 78.2225 58.745 78.2225H43.9451C42.013 78.2225 40.3397 76.8281 40.0609 74.9159C39.3637 70.4739 37.312 66.2511 34.1648 63.0042C30.1013 58.7814 27.5716 53.0447 27.5118 46.7303C27.3724 33.4642 37.9295 22.7277 51.1957 22.6281C64.4419 22.5285 75.1982 33.245 75.1982 46.4714ZM54.0441 32.03C54.0441 30.556 52.849 29.3409 51.355 29.3409C41.8735 29.3409 34.1449 37.0496 34.1449 46.551C34.1449 48.025 35.34 49.2401 36.834 49.2401C38.308 49.2401 39.5231 48.045 39.5231 46.551C39.5231 40.0176 44.8415 34.7191 51.355 34.7191C52.849 34.7191 54.0441 33.5239 54.0441 32.03ZM51.355 14.7999C52.829 14.7999 54.0441 13.6048 54.0441 12.1108V2.68908C54.0441 1.21507 52.849 0 51.355 0C49.8611 0 48.6659 1.19515 48.6659 2.68908V12.1108C48.6659 13.6048 49.881 14.7999 51.355 14.7999ZM19.7035 46.4514C19.7035 44.9774 18.5084 43.7624 17.0144 43.7624H7.59268C6.11866 43.7624 4.90359 44.9575 4.90359 46.4514C4.90359 47.9255 6.09874 49.1405 7.59268 49.1405H17.0144C18.5084 49.1405 19.7035 47.9454 19.7035 46.4514ZM95.1174 43.7624H85.6956C84.2216 43.7624 83.0065 44.9575 83.0065 46.4514C83.0065 47.9255 84.2017 49.1405 85.6956 49.1405H95.1174C96.5914 49.1405 97.8065 47.9454 97.8065 46.4514C97.8065 44.9774 96.6113 43.7624 95.1174 43.7624ZM25.1813 68.8405L18.5084 75.5135C17.4527 76.5692 17.4527 78.2623 18.5084 79.318C19.0263 79.8359 19.7234 80.0949 20.4007 80.0949C21.0779 80.0949 21.7751 79.8359 22.293 79.318L28.9659 72.6451C30.0216 71.5894 30.0216 69.8963 28.9659 68.8405C27.9301 67.7848 26.2171 67.7848 25.1813 68.8405ZM75.6365 24.8591C76.3137 24.8591 77.0109 24.6001 77.5288 24.0822L84.2017 17.4093C85.2574 16.3536 85.2574 14.6605 84.2017 13.6048C83.146 12.5491 81.4528 12.5491 80.3971 13.6048L73.7242 20.2777C72.6685 21.3334 72.6685 23.0265 73.7242 24.0822C74.262 24.6001 74.9393 24.8591 75.6365 24.8591ZM25.1813 24.0623C25.6992 24.5802 26.3963 24.8392 27.0736 24.8392C27.7508 24.8392 28.448 24.5802 28.9659 24.0623C30.0216 23.0066 30.0216 21.3135 28.9659 20.2578L22.293 13.5849C21.2373 12.5291 19.5442 12.5291 18.4884 13.5849C17.4327 14.6406 17.4327 16.3337 18.4884 17.3894L25.1813 24.0623ZM77.5288 68.8405C76.4731 67.7848 74.7799 67.7848 73.7242 68.8405C72.6685 69.8963 72.6685 71.5894 73.7242 72.6451L80.3971 79.318C80.915 79.8359 81.6122 80.0949 82.2895 80.0949C82.9667 80.0949 83.6639 79.8359 84.1818 79.318C85.2375 78.2623 85.2375 76.5692 84.1818 75.5135L77.5288 68.8405Z" fill="#10FFCB"/>
</svg>
